<?xml version="1.0" encoding="utf-8"?>
<!-- Generator: Adobe Illustrator 26.0.2, SVG Export Plug-In . SVG Version: 6.00 Build 0)  -->
<svg version="1.1" id="Layer_1" xmlns="http://www.w3.org/2000/svg" xmlns:xlink="http://www.w3.org/1999/xlink" x="0px" y="0px"
	 viewBox="0 0 32 32" style="enable-background:new 0 0 32 32;" xml:space="preserve">
<g id="Snow_Cloudy">
	<g>
		<g>
			<path fill="#ffffff" d="M27.54,11.42c-0.08,0-0.17,0-0.25,0.01c0-0.07,0-0.14,0-0.22c0-2.81-2.29-5.1-5.1-5.1c-0.67,0-1.33,0.13-1.94,0.38
				c-0.94-1.44-2.53-2.32-4.28-2.32c-1.87,0-3.58,1.02-4.47,2.64c-0.27-0.04-0.55-0.07-0.82-0.07c-1.2,0-2.36,0.43-3.27,1.22
				c-0.75,0.65-1.29,1.51-1.55,2.46C5.58,10.37,5.29,10.34,5,10.34c-2.76,0-5,2.24-5,5s2.24,5,5,5h22.54c2.46,0,4.46-2,4.46-4.46
				S30,11.42,27.54,11.42z M27.54,19.28H5c-2.17,0-3.94-1.77-3.94-3.94S2.83,11.4,5,11.4c0.38,0,0.76,0.05,1.12,0.16
				c0.56,0.17,1.08,0.46,1.53,0.86c0.22,0.2,0.55,0.18,0.75-0.04s0.18-0.55-0.04-0.75c-0.44-0.4-0.94-0.71-1.47-0.93
				c0.2-0.75,0.63-1.43,1.22-1.95C8.82,8.14,9.73,7.8,10.68,7.8c0.65,0,1.29,0.16,1.86,0.47c0.26,0.14,0.58,0.04,0.72-0.21
				c0.14-0.26,0.04-0.58-0.21-0.72c-0.16-0.09-0.32-0.16-0.49-0.23c0.74-1.15,2.02-1.87,3.41-1.87c1.35,0,2.59,0.66,3.34,1.76
				c-0.17,0.12-0.33,0.24-0.49,0.38c-0.22,0.19-0.24,0.53-0.05,0.75s0.53,0.24,0.75,0.05c0.74-0.65,1.68-1,2.66-1
				c2.23,0,4.04,1.81,4.04,4.04c0,0.24-0.02,0.48-0.06,0.72c0,0.01,0,0.03-0.01,0.04c-0.04,0.23-0.11,0.45-0.19,0.68
				c-0.1,0.27,0.03,0.58,0.31,0.69c0.06,0.02,0.13,0.03,0.19,0.03c0.21,0,0.42-0.13,0.5-0.34c0.06-0.17,0.12-0.34,0.16-0.51
				c0.14-0.02,0.27-0.02,0.41-0.02c1.87,0,3.4,1.53,3.4,3.4C30.94,17.76,29.41,19.28,27.54,19.28z"/>
		</g>
	</g>
	<circle fill="#00B2FF" cx="7.21" cy="22.3" r="0.86"/>
	<circle fill="#00B2FF" cx="16.58" cy="25.06" r="1.23"/>
	<circle fill="#00B2FF" cx="22.74" cy="22.16" r="0.5"/>
	<circle fill="#00B2FF" cx="10.3" cy="30.51" r="0.87"/>
	<circle fill="#00B2FF" cx="26.4" cy="28.37" r="0.69"/>
</g>
</svg>
