<?xml version="1.0" encoding="utf-8"?>
<!-- Generator: Adobe Illustrator 26.0.2, SVG Export Plug-In . SVG Version: 6.00 Build 0)  -->
<svg version="1.1" id="Layer_1" xmlns="http://www.w3.org/2000/svg" xmlns:xlink="http://www.w3.org/1999/xlink" x="0px" y="0px"
	 viewBox="0 0 32 32" style="enable-background:new 0 0 32 32;" xml:space="preserve">
<g id="Day_Cloudy_x27_">
	<g>
		<path fill="#FFEC44" d="M20.12,9.38c-3.07,0-5.62,2.3-6.02,5.26c0.27,0.03,0.53,0.08,0.78,0.16c0.32-2.6,2.54-4.63,5.24-4.63
			c2.92,0,5.29,2.38,5.29,5.29c0,1.74-0.84,3.29-2.15,4.25c0.07,0.28,0.11,0.58,0.11,0.88c1.7-1.07,2.83-2.97,2.83-5.13
			C26.2,12.11,23.47,9.38,20.12,9.38z"/>
		<path fill="#FFEC44" d="M20.51,3.58v4.18c-0.13-0.01-0.26-0.01-0.39-0.01s-0.27,0-0.39,0.01V3.58H20.51z"/>
		<path fill="#FFEC44" d="M11.99,6.78l2.96,2.96c-0.09,0.08-0.19,0.18-0.28,0.27s-0.19,0.19-0.27,0.28l-2.96-2.96L11.99,6.78z"/>
		<path fill="#FFEC44" d="M28.8,23.59l-0.56,0.55l-1.29-1.29c-0.36-0.66-0.9-1.2-1.56-1.56l-0.1-0.1c0.1-0.08,0.19-0.18,0.29-0.27
			c0.09-0.1,0.19-0.19,0.27-0.29L28.8,23.59z"/>
		<path fill="#FFEC44" d="M11.74,15.07c-0.4,0.2-0.78,0.47-1.1,0.78h-2.4v-0.78H11.74z"/>
		<path fill="#FFEC44" d="M27.83,15.46c0-0.13,0-0.27-0.01-0.39H32v0.79h-4.17C27.83,15.73,27.83,15.6,27.83,15.46z"/>
		<path fill="#FFEC44" d="M25.57,10.01c-0.09-0.09-0.19-0.19-0.28-0.27l2.95-2.95l0.56,0.56l-2.95,2.95C25.76,10.2,25.67,10.1,25.57,10.01z"/>
	</g>
	<g>
		<path fill="#FFFFFF" d="M26.95,22.85c-0.36-0.66-0.9-1.2-1.56-1.56c-0.54-0.29-1.15-0.46-1.81-0.46h-0.22c0.01-0.06,0.01-0.12,0.01-0.18v-0.06
			c0-0.3-0.04-0.6-0.11-0.88c-0.42-1.96-2.17-3.43-4.26-3.43c-0.58,0-1.14,0.11-1.66,0.33c-0.58-0.89-1.45-1.53-2.46-1.81
			c-0.25-0.08-0.51-0.13-0.78-0.16c-0.14-0.01-0.29-0.02-0.43-0.02c-0.68,0-1.34,0.16-1.93,0.45c-0.4,0.2-0.78,0.47-1.1,0.78
			c-0.31,0.3-0.58,0.65-0.79,1.03c-0.23-0.04-0.47-0.06-0.71-0.06c-1.03,0-2.02,0.37-2.79,1.04c-0.65,0.56-1.11,1.3-1.33,2.11
			c-0.24-0.04-0.49-0.07-0.74-0.07C1.92,19.9,0,21.82,0,24.19c0,2.36,1.92,4.28,4.28,4.28h19.3c2.1,0,3.82-1.72,3.82-3.82
			C27.4,24,27.24,23.39,26.95,22.85z M23.58,27.56H4.28c-1.85,0-3.37-1.52-3.37-3.37c0-1.86,1.52-3.38,3.37-3.38
			c0.33,0,0.65,0.05,0.96,0.14c0.48,0.14,0.93,0.39,1.31,0.74c0.18,0.16,0.47,0.15,0.64-0.04c0.17-0.18,0.15-0.47-0.03-0.64
			c-0.38-0.34-0.8-0.61-1.26-0.79c0.17-0.65,0.53-1.23,1.04-1.67c0.61-0.53,1.39-0.82,2.2-0.82c0.56,0,1.11,0.14,1.6,0.4
			c0.22,0.12,0.5,0.04,0.61-0.18c0.12-0.22,0.04-0.5-0.18-0.62c-0.13-0.07-0.27-0.14-0.42-0.2c0.36-0.57,0.88-1.01,1.49-1.28
			c0.06-0.03,0.12-0.06,0.18-0.08c0.39-0.16,0.81-0.24,1.25-0.24c0.12,0,0.25,0.01,0.37,0.03c0.28,0.02,0.55,0.08,0.81,0.18
			c0.68,0.24,1.27,0.69,1.68,1.3c-0.14,0.1-0.28,0.21-0.41,0.32c-0.19,0.17-0.21,0.46-0.04,0.65c0.16,0.18,0.45,0.2,0.64,0.04
			c0.63-0.56,1.44-0.86,2.28-0.86c1.76,0,3.22,1.32,3.43,3.03c0.02,0.14,0.03,0.28,0.03,0.43s-0.01,0.3-0.04,0.44
			c0,0.06-0.01,0.11-0.02,0.17v0.04c-0.04,0.19-0.1,0.39-0.17,0.58c-0.09,0.23,0.03,0.49,0.27,0.58c0.05,0.02,0.11,0.03,0.16,0.03
			c0.18,0,0.36-0.11,0.42-0.29c0.06-0.15,0.11-0.29,0.14-0.44c0.12-0.01,0.24-0.02,0.36-0.02c1.6,0,2.91,1.3,2.91,2.91
			C26.49,26.25,25.18,27.56,23.58,27.56z"/>
	</g>
</g>
</svg>
