<?xml version="1.0" encoding="utf-8"?>
<!-- Generator: Adobe Illustrator 26.0.2, SVG Export Plug-In . SVG Version: 6.00 Build 0)  -->
<svg version="1.1" id="Layer_1" xmlns="http://www.w3.org/2000/svg" xmlns:xlink="http://www.w3.org/1999/xlink" x="0px" y="0px"
	 viewBox="0 0 32 32" style="enable-background:new 0 0 32 32;" xml:space="preserve">
<style type="text/css">
	.st0{display:none;}
	.st1{display:inline;}
	.st2{display:inline;fill:none;stroke:#000000;stroke-width:1.0625;stroke-miterlimit:10;}
</style>
<g id="Lightning">
	<g>
		<path d="M22.68,18.72h-2.22c-0.15,0-0.23-0.17-0.13-0.28l0.52-0.63h-1.38l-1.27,1.54c-0.14,0.17-0.02,0.44,0.21,0.44h2.08
			c0.22,0,0.33,0.26,0.18,0.42l-5.19,5.44c-0.05,0.05-0.12-0.01-0.09-0.07l1.38-2.42c0.13-0.22-0.03-0.5-0.29-0.5h-1.69
			c-0.21,0-0.33-0.23-0.22-0.41l2.93-4.45h-1.27l-3.58,5.44c-0.13,0.2,0.01,0.48,0.26,0.48h2.32l-3.42,5.99
			c-0.27,0.48,0.36,0.95,0.74,0.55l10.41-10.92C23.17,19.11,23,18.72,22.68,18.72z"/>
	</g>
	<g>
		<path d="M27.54,8.88c-0.08,0-0.17,0-0.25,0.01c0-0.07,0-0.14,0-0.22c0-2.81-2.29-5.1-5.1-5.1c-0.67,0-1.33,0.13-1.94,0.38
			c-0.94-1.44-2.53-2.32-4.28-2.32c-1.87,0-3.58,1.02-4.47,2.64c-0.27-0.04-0.55-0.07-0.82-0.07c-1.2,0-2.36,0.43-3.27,1.22
			C6.66,6.07,6.12,6.93,5.86,7.88C5.58,7.83,5.29,7.81,5,7.81c-2.76,0-5,2.24-5,5c0,2.76,2.24,5,5,5h22.54c2.46,0,4.46-2,4.46-4.46
			C32,10.89,30,8.88,27.54,8.88z M27.54,16.75H5c-2.17,0-3.94-1.77-3.94-3.94c0-2.17,1.77-3.94,3.94-3.94
			c0.38,0,0.76,0.05,1.12,0.16C6.68,9.19,7.2,9.49,7.64,9.89c0.22,0.2,0.55,0.18,0.75-0.04C8.59,9.63,8.58,9.3,8.36,9.1
			C7.92,8.7,7.42,8.39,6.89,8.17c0.2-0.75,0.63-1.43,1.22-1.95c0.71-0.62,1.63-0.96,2.57-0.96c0.65,0,1.29,0.16,1.86,0.47
			c0.26,0.14,0.58,0.04,0.72-0.21c0.14-0.26,0.04-0.58-0.21-0.72c-0.16-0.09-0.32-0.16-0.49-0.23c0.74-1.15,2.02-1.87,3.41-1.87
			c1.35,0,2.59,0.66,3.34,1.76c-0.17,0.12-0.33,0.24-0.49,0.38c-0.22,0.19-0.24,0.53-0.05,0.75c0.19,0.22,0.53,0.24,0.75,0.05
			c0.74-0.65,1.68-1,2.66-1c2.23,0,4.04,1.81,4.04,4.04c0,0.24-0.02,0.48-0.06,0.72c0,0.01,0,0.03-0.01,0.04
			c-0.04,0.23-0.11,0.45-0.19,0.68c-0.1,0.27,0.03,0.58,0.31,0.69c0.06,0.02,0.13,0.03,0.19,0.03c0.21,0,0.42-0.13,0.5-0.34
			c0.06-0.17,0.12-0.34,0.16-0.51c0.14-0.02,0.27-0.02,0.41-0.02c1.87,0,3.4,1.53,3.4,3.4C30.94,15.22,29.41,16.75,27.54,16.75z"/>
	</g>
</g>
<g id="Sunny" class="st0">
	<path class="st1" d="M16,24.22c-4.51,0-8.19-3.67-8.19-8.19c0-4.51,3.67-8.19,8.19-8.19c4.51,0,8.19,3.67,8.19,8.19
		C24.19,20.54,20.52,24.22,16,24.22z M16,8.91c-3.93,0-7.12,3.2-7.12,7.12s3.2,7.12,7.12,7.12s7.12-3.2,7.12-7.12
		S19.93,8.91,16,8.91z"/>
	<path class="st1" d="M16.53,0.03v5.63C16.36,5.65,16.18,5.65,16,5.65c-0.18,0-0.36,0-0.53,0.01V0.03H16.53z"/>
	<path class="st1" d="M16,26.42c0.18,0,0.36,0,0.53-0.01v5.62h-1.06v-5.62C15.64,26.42,15.82,26.42,16,26.42z"/>
	<path class="st1" d="M5.06,4.34l3.98,3.98C8.91,8.43,8.79,8.56,8.66,8.69C8.53,8.81,8.41,8.94,8.29,9.07L4.31,5.09L5.06,4.34z"/>
	<path class="st1" d="M23.35,23.37c0.13-0.13,0.25-0.25,0.37-0.38l3.97,3.97l-0.75,0.75l-3.97-3.97
		C23.09,23.63,23.22,23.5,23.35,23.37z"/>
	<path class="st1" d="M0,15.5h5.63c-0.01,0.17-0.01,0.35-0.01,0.53c0,0.18,0,0.36,0.01,0.53H0L0,15.5z"/>
	<path class="st1" d="M26.39,16.03c0-0.18,0-0.36-0.01-0.53H32v1.06h-5.62C26.39,16.39,26.39,16.21,26.39,16.03z"/>
	<path class="st1" d="M4.31,26.96l3.98-3.98c0.11,0.13,0.24,0.25,0.37,0.38c0.13,0.13,0.25,0.25,0.38,0.37l-3.98,3.98L4.31,26.96z"
		/>
	<path class="st1" d="M23.35,8.68c-0.13-0.13-0.25-0.25-0.38-0.37l3.97-3.97l0.75,0.75l-3.97,3.97C23.6,8.93,23.47,8.81,23.35,8.68z
		"/>
</g>
<g id="Day_Cloudy_x27_" class="st0">
	<g class="st1">
		<path d="M20.12,9.38c-3.07,0-5.62,2.3-6.02,5.26c0.27,0.03,0.53,0.08,0.78,0.16c0.32-2.6,2.54-4.63,5.24-4.63
			c2.92,0,5.29,2.38,5.29,5.29c0,1.74-0.84,3.29-2.15,4.25c0.07,0.28,0.11,0.58,0.11,0.88c1.7-1.07,2.83-2.97,2.83-5.13
			C26.2,12.11,23.47,9.38,20.12,9.38z"/>
		<path d="M20.51,3.58v4.18c-0.13-0.01-0.26-0.01-0.39-0.01c-0.13,0-0.27,0-0.39,0.01V3.58H20.51z"/>
		<path d="M11.99,6.78l2.96,2.96c-0.09,0.08-0.19,0.18-0.28,0.27c-0.09,0.09-0.19,0.19-0.27,0.28l-2.96-2.96L11.99,6.78z"/>
		<path d="M28.8,23.59l-0.56,0.55l-1.29-1.29c-0.36-0.66-0.9-1.2-1.56-1.56l-0.1-0.1c0.1-0.08,0.19-0.18,0.29-0.27
			c0.09-0.1,0.19-0.19,0.27-0.29L28.8,23.59z"/>
		<path d="M11.74,15.07c-0.4,0.2-0.78,0.47-1.1,0.78h-2.4v-0.78H11.74z"/>
		<path d="M27.83,15.46c0-0.13,0-0.27-0.01-0.39H32v0.79h-4.17C27.83,15.73,27.83,15.6,27.83,15.46z"/>
		<path d="M25.57,10.01c-0.09-0.09-0.19-0.19-0.28-0.27l2.95-2.95l0.56,0.56l-2.95,2.95C25.76,10.2,25.67,10.1,25.57,10.01z"/>
	</g>
	<g class="st1">
		<path d="M26.95,22.85c-0.36-0.66-0.9-1.2-1.56-1.56c-0.54-0.29-1.15-0.46-1.81-0.46h-0.22c0.01-0.06,0.01-0.12,0.01-0.18v-0.06
			c0-0.3-0.04-0.6-0.11-0.88c-0.42-1.96-2.17-3.43-4.26-3.43c-0.58,0-1.14,0.11-1.66,0.33c-0.58-0.89-1.45-1.53-2.46-1.81
			c-0.25-0.08-0.51-0.13-0.78-0.16c-0.14-0.01-0.29-0.02-0.43-0.02c-0.68,0-1.34,0.16-1.93,0.45c-0.4,0.2-0.78,0.47-1.1,0.78
			c-0.31,0.3-0.58,0.65-0.79,1.03c-0.23-0.04-0.47-0.06-0.71-0.06c-1.03,0-2.02,0.37-2.79,1.04c-0.65,0.56-1.11,1.3-1.33,2.11
			c-0.24-0.04-0.49-0.07-0.74-0.07C1.92,19.9,0,21.82,0,24.19c0,2.36,1.92,4.28,4.28,4.28h19.3c2.1,0,3.82-1.72,3.82-3.82
			C27.4,24,27.24,23.39,26.95,22.85z M23.58,27.56H4.28c-1.85,0-3.37-1.52-3.37-3.37c0-1.86,1.52-3.38,3.37-3.38
			c0.33,0,0.65,0.05,0.96,0.14c0.48,0.14,0.93,0.39,1.31,0.74c0.18,0.16,0.47,0.15,0.64-0.04c0.17-0.18,0.15-0.47-0.03-0.64
			c-0.38-0.34-0.8-0.61-1.26-0.79c0.17-0.65,0.53-1.23,1.04-1.67c0.61-0.53,1.39-0.82,2.2-0.82c0.56,0,1.11,0.14,1.6,0.4
			c0.22,0.12,0.5,0.04,0.61-0.18c0.12-0.22,0.04-0.5-0.18-0.62c-0.13-0.07-0.27-0.14-0.42-0.2c0.36-0.57,0.88-1.01,1.49-1.28
			c0.06-0.03,0.12-0.06,0.18-0.08c0.39-0.16,0.81-0.24,1.25-0.24c0.12,0,0.25,0.01,0.37,0.03c0.28,0.02,0.55,0.08,0.81,0.18
			c0.68,0.24,1.27,0.69,1.68,1.3c-0.14,0.1-0.28,0.21-0.41,0.32c-0.19,0.17-0.21,0.46-0.04,0.65c0.16,0.18,0.45,0.2,0.64,0.04
			c0.63-0.56,1.44-0.86,2.28-0.86c1.76,0,3.22,1.32,3.43,3.03c0.02,0.14,0.03,0.28,0.03,0.43c0,0.15-0.01,0.3-0.04,0.44
			c0,0.06-0.01,0.11-0.02,0.17v0.04c-0.04,0.19-0.1,0.39-0.17,0.58c-0.09,0.23,0.03,0.49,0.27,0.58c0.05,0.02,0.11,0.03,0.16,0.03
			c0.18,0,0.36-0.11,0.42-0.29c0.06-0.15,0.11-0.29,0.14-0.44c0.12-0.01,0.24-0.02,0.36-0.02c1.6,0,2.91,1.3,2.91,2.91
			C26.49,26.25,25.18,27.56,23.58,27.56z"/>
	</g>
</g>
<g id="Rain_Cloudy" class="st0">
	<g class="st1">
		<g>
			<path d="M27.54,10.68c-0.08,0-0.17,0-0.25,0.01c0-0.07,0-0.14,0-0.22c0-2.81-2.29-5.1-5.1-5.1c-0.67,0-1.33,0.13-1.94,0.38
				c-0.94-1.44-2.53-2.32-4.28-2.32c-1.87,0-3.58,1.02-4.47,2.64C11.23,6.02,10.95,6,10.68,6c-1.2,0-2.36,0.43-3.27,1.22
				C6.66,7.87,6.12,8.73,5.86,9.68C5.58,9.63,5.29,9.6,5,9.6c-2.76,0-5,2.24-5,5c0,2.76,2.24,5,5,5h22.54c2.46,0,4.46-2,4.46-4.46
				C32,12.69,30,10.68,27.54,10.68z M27.54,18.54H5c-2.17,0-3.94-1.77-3.94-3.94c0-2.17,1.77-3.94,3.94-3.94
				c0.38,0,0.76,0.05,1.12,0.16c0.56,0.17,1.08,0.46,1.53,0.86c0.22,0.2,0.55,0.18,0.75-0.04c0.2-0.22,0.18-0.55-0.04-0.75
				c-0.44-0.4-0.94-0.71-1.47-0.93c0.2-0.75,0.63-1.43,1.22-1.95c0.71-0.62,1.63-0.96,2.57-0.96c0.65,0,1.29,0.16,1.86,0.47
				c0.26,0.14,0.58,0.04,0.72-0.21c0.14-0.26,0.04-0.58-0.21-0.72c-0.16-0.09-0.32-0.16-0.49-0.23c0.74-1.15,2.02-1.87,3.41-1.87
				c1.35,0,2.59,0.66,3.34,1.76c-0.17,0.12-0.33,0.24-0.49,0.38c-0.22,0.19-0.24,0.53-0.05,0.75c0.19,0.22,0.53,0.24,0.75,0.05
				c0.74-0.65,1.68-1,2.66-1c2.23,0,4.04,1.81,4.04,4.04c0,0.24-0.02,0.48-0.06,0.72c0,0.01,0,0.03-0.01,0.04
				c-0.04,0.23-0.11,0.45-0.19,0.68c-0.1,0.27,0.03,0.58,0.31,0.69c0.06,0.02,0.13,0.03,0.19,0.03c0.21,0,0.42-0.13,0.5-0.34
				c0.06-0.17,0.12-0.34,0.16-0.51c0.14-0.02,0.27-0.02,0.41-0.02c1.87,0,3.4,1.53,3.4,3.4C30.94,17.02,29.41,18.54,27.54,18.54z"/>
		</g>
	</g>
	<path class="st1" d="M12.18,28.62c-1.32,0-2.4-1.07-2.4-2.4c0-1.1,1.6-4.3,1.92-4.93l0.47-0.93l0.47,0.93
		c0.32,0.63,1.92,3.83,1.92,4.93C14.57,27.55,13.5,28.62,12.18,28.62z M12.18,22.74c-0.66,1.38-1.33,2.99-1.33,3.48
		c0,0.74,0.6,1.33,1.33,1.33c0.74,0,1.33-0.6,1.33-1.33C13.51,25.73,12.83,24.12,12.18,22.74z"/>
	<path class="st1" d="M18.55,24.05c-1.02,0-1.85-0.83-1.85-1.85c0-0.8,1.06-2.93,1.38-3.57l0.47-0.93l0.47,0.93
		c0.32,0.64,1.38,2.77,1.38,3.57C20.41,23.22,19.58,24.05,18.55,24.05z M18.55,20.09c-0.43,0.93-0.79,1.83-0.79,2.11
		c0,0.44,0.35,0.79,0.79,0.79c0.44,0,0.79-0.35,0.79-0.79C19.35,21.92,18.99,21.02,18.55,20.09z"/>
	<path class="st1" d="M14.04,18.17c-0.87,0-1.58-0.71-1.58-1.58c0-0.64,0.78-2.23,1.11-2.89l0.47-0.93l0.47,0.93
		c0.33,0.66,1.11,2.25,1.11,2.89C15.63,17.46,14.92,18.17,14.04,18.17z M14.04,15.17c-0.29,0.64-0.52,1.23-0.52,1.42
		c0,0.29,0.23,0.52,0.52,0.52s0.52-0.23,0.52-0.52C14.56,16.4,14.33,15.81,14.04,15.17z"/>
</g>
<g id="Thunderstorm" class="st0">
	<g class="st1">
		<g>
			<path d="M22.68,18.72h-2.22c-0.15,0-0.23-0.17-0.13-0.28l0.52-0.63h-1.38l-1.27,1.54c-0.14,0.17-0.02,0.44,0.21,0.44h2.08
				c0.22,0,0.33,0.26,0.18,0.42l-5.19,5.44c-0.05,0.05-0.12-0.01-0.09-0.07l1.38-2.42c0.13-0.22-0.03-0.5-0.29-0.5h-1.69
				c-0.21,0-0.33-0.23-0.22-0.41l2.93-4.45h-1.27l-3.58,5.44c-0.13,0.2,0.01,0.48,0.26,0.48h2.32l-3.42,5.99
				c-0.27,0.48,0.36,0.95,0.74,0.55l10.41-10.92C23.17,19.11,23,18.72,22.68,18.72z"/>
		</g>
		<g>
			<path d="M27.54,8.88c-0.08,0-0.17,0-0.25,0.01c0-0.07,0-0.14,0-0.22c0-2.81-2.29-5.1-5.1-5.1c-0.67,0-1.33,0.13-1.94,0.38
				c-0.94-1.44-2.53-2.32-4.28-2.32c-1.87,0-3.58,1.02-4.47,2.64c-0.27-0.04-0.55-0.07-0.82-0.07c-1.2,0-2.36,0.43-3.27,1.22
				C6.66,6.07,6.12,6.93,5.86,7.88C5.58,7.83,5.29,7.81,5,7.81c-2.76,0-5,2.24-5,5c0,2.76,2.24,5,5,5h22.54c2.46,0,4.46-2,4.46-4.46
				C32,10.89,30,8.88,27.54,8.88z M27.54,16.75H5c-2.17,0-3.94-1.77-3.94-3.94c0-2.17,1.77-3.94,3.94-3.94
				c0.38,0,0.76,0.05,1.12,0.16C6.68,9.19,7.2,9.49,7.64,9.89c0.22,0.2,0.55,0.18,0.75-0.04C8.59,9.63,8.58,9.3,8.36,9.1
				C7.92,8.7,7.42,8.39,6.89,8.17c0.2-0.75,0.63-1.43,1.22-1.95c0.71-0.62,1.63-0.96,2.57-0.96c0.65,0,1.29,0.16,1.86,0.47
				c0.26,0.14,0.58,0.04,0.72-0.21c0.14-0.26,0.04-0.58-0.21-0.72c-0.16-0.09-0.32-0.16-0.49-0.23c0.74-1.15,2.02-1.87,3.41-1.87
				c1.35,0,2.59,0.66,3.34,1.76c-0.17,0.12-0.33,0.24-0.49,0.38c-0.22,0.19-0.24,0.53-0.05,0.75c0.19,0.22,0.53,0.24,0.75,0.05
				c0.74-0.65,1.68-1,2.66-1c2.23,0,4.04,1.81,4.04,4.04c0,0.24-0.02,0.48-0.06,0.72c0,0.01,0,0.03-0.01,0.04
				c-0.04,0.23-0.11,0.45-0.19,0.68c-0.1,0.27,0.03,0.58,0.31,0.69c0.06,0.02,0.13,0.03,0.19,0.03c0.21,0,0.42-0.13,0.5-0.34
				c0.06-0.17,0.12-0.34,0.16-0.51c0.14-0.02,0.27-0.02,0.41-0.02c1.87,0,3.4,1.53,3.4,3.4C30.94,15.22,29.41,16.75,27.54,16.75z"/>
		</g>
	</g>
	<path class="st1" d="M5.26,26.9c-1.32,0-2.4-1.07-2.4-2.4c0-1.1,1.6-4.3,1.92-4.93l0.47-0.93l0.47,0.93
		c0.32,0.63,1.92,3.83,1.92,4.93C7.66,25.83,6.58,26.9,5.26,26.9z M5.26,21.02c-0.66,1.38-1.33,2.99-1.33,3.48
		c0,0.74,0.6,1.33,1.33,1.33s1.33-0.6,1.33-1.33C6.59,24.01,5.92,22.4,5.26,21.02z"/>
	<path class="st1" d="M11.64,22.34c-1.02,0-1.85-0.83-1.85-1.85c0-0.8,1.06-2.93,1.38-3.57l0.47-0.93l0.47,0.93
		c0.32,0.64,1.38,2.77,1.38,3.57C13.49,21.5,12.66,22.34,11.64,22.34z M11.64,18.37c-0.43,0.93-0.79,1.83-0.79,2.11
		c0,0.44,0.35,0.79,0.79,0.79s0.79-0.35,0.79-0.79C12.43,20.21,12.07,19.31,11.64,18.37z"/>
	<path class="st1" d="M7.12,16.45c-0.87,0-1.58-0.71-1.58-1.58c0-0.64,0.78-2.23,1.11-2.89l0.47-0.93l0.47,0.93
		c0.33,0.66,1.11,2.25,1.11,2.89C8.71,15.74,8,16.45,7.12,16.45z M7.12,13.45c-0.29,0.65-0.52,1.23-0.52,1.42
		c0,0.29,0.23,0.52,0.52,0.52s0.52-0.23,0.52-0.52C7.64,14.68,7.42,14.1,7.12,13.45z"/>
</g>
<g id="Sleet" class="st0">
	<g class="st1">
		<g>
			<path d="M27.54,11.57c-0.08,0-0.17,0-0.25,0.01c0-0.07,0-0.14,0-0.22c0-2.81-2.29-5.1-5.1-5.1c-0.67,0-1.33,0.13-1.94,0.38
				c-0.94-1.44-2.53-2.32-4.28-2.32c-1.87,0-3.58,1.02-4.47,2.64c-0.27-0.04-0.55-0.07-0.82-0.07c-1.2,0-2.36,0.43-3.27,1.22
				c-0.75,0.65-1.29,1.51-1.55,2.46C5.58,10.52,5.29,10.49,5,10.49c-2.76,0-5,2.24-5,5c0,2.76,2.24,5,5,5h22.54
				c2.46,0,4.46-2,4.46-4.46C32,13.58,30,11.57,27.54,11.57z M27.54,19.43H5c-2.17,0-3.94-1.77-3.94-3.94
				c0-2.17,1.77-3.94,3.94-3.94c0.38,0,0.76,0.05,1.12,0.16c0.56,0.17,1.08,0.46,1.53,0.86c0.22,0.2,0.55,0.18,0.75-0.04
				c0.2-0.22,0.18-0.55-0.04-0.75c-0.44-0.4-0.94-0.71-1.47-0.93c0.2-0.75,0.63-1.43,1.22-1.95c0.71-0.62,1.63-0.96,2.57-0.96
				c0.65,0,1.29,0.16,1.86,0.47c0.26,0.14,0.58,0.04,0.72-0.21c0.14-0.26,0.04-0.58-0.21-0.72c-0.16-0.09-0.32-0.16-0.49-0.23
				c0.74-1.15,2.02-1.87,3.41-1.87c1.35,0,2.59,0.66,3.34,1.76c-0.17,0.12-0.33,0.24-0.49,0.38c-0.22,0.19-0.24,0.53-0.05,0.75
				c0.19,0.22,0.53,0.24,0.75,0.05c0.74-0.65,1.68-1,2.66-1c2.23,0,4.04,1.81,4.04,4.04c0,0.24-0.02,0.48-0.06,0.72
				c0,0.01,0,0.03-0.01,0.04c-0.04,0.23-0.11,0.45-0.19,0.68c-0.1,0.27,0.03,0.58,0.31,0.69c0.06,0.02,0.13,0.03,0.19,0.03
				c0.21,0,0.42-0.13,0.5-0.34c0.06-0.17,0.12-0.34,0.16-0.51c0.14-0.02,0.27-0.02,0.41-0.02c1.87,0,3.4,1.53,3.4,3.4
				C30.94,17.91,29.41,19.43,27.54,19.43z"/>
		</g>
	</g>
	
		<rect x="3.92" y="20.97" transform="matrix(0.7076 -0.7066 0.7066 0.7076 -11.6228 14.9087)" class="st1" width="16.56" height="1.06"/>
	
		<rect x="9.71" y="18.69" transform="matrix(0.7076 -0.7066 0.7066 0.7076 -8.1779 18.6784)" class="st1" width="17.53" height="1.06"/>
	
		<rect x="16.16" y="21.16" transform="matrix(0.7076 -0.7066 0.7066 0.7076 -9.187 21.1872)" class="st1" width="9.69" height="1.06"/>
</g>
<g id="Tornado" class="st0">
	<rect x="0.04" y="3.13" class="st1" width="31.92" height="1.06"/>
	<rect x="3.56" y="6.71" class="st1" width="20.15" height="1.06"/>
	<rect x="7.14" y="10.29" class="st1" width="18.87" height="1.06"/>
	<rect x="10.69" y="13.62" class="st1" width="16.55" height="1.06"/>
	<rect x="14.22" y="17.29" class="st1" width="10.62" height="1.06"/>
	<rect x="11.87" y="20.7" class="st1" width="9.46" height="1.06"/>
	<rect x="9.48" y="24.19" class="st1" width="7.11" height="1.06"/>
	<rect x="10.69" y="27.86" class="st1" width="3.52" height="1.06"/>
</g>
<g id="Windy" class="st0">
	<rect x="0.01" y="10.9" class="st1" width="10.67" height="1.06"/>
	<path class="st1" d="M31.99,11.28c0,2.55-2.08,4.63-4.63,4.63H3.96v-1.06h23.4c1.97,0,3.57-1.61,3.57-3.57
		c0-0.39-0.06-0.77-0.18-1.12c-0.36-1.1-1.24-1.97-2.35-2.31c-0.33-0.1-0.68-0.15-1.04-0.15c-0.16,0-0.32,0.01-0.47,0.04
		c-0.45,0.05-0.88,0.2-1.26,0.41c-0.01,0-0.01,0-0.01,0c-0.59,0.34-1.07,0.82-1.39,1.41c0,0.01-0.01,0.01-0.01,0.02
		c-0.05,0.19-0.08,0.38-0.08,0.58c0,1.16,0.94,2.1,2.1,2.1c1.16,0,2.1-0.94,2.1-2.1h1.06c0,1.74-1.42,3.16-3.16,3.16
		c-0.9,0-1.72-0.38-2.3-1c-0.53-0.56-0.86-1.32-0.86-2.16c0-0.37,0.07-0.73,0.19-1.06c0-0.01,0-0.02,0.01-0.03
		c0.46-0.84,1.16-1.52,2.02-1.94c0.48-0.25,1.02-0.41,1.59-0.47c0.15-0.01,0.31-0.02,0.47-0.02c2.16,0,3.99,1.5,4.49,3.52
		C31.94,10.52,31.99,10.89,31.99,11.28z"/>
	<rect x="6.62" y="18.27" class="st1" width="9.56" height="1.06"/>
	<rect x="13.27" y="24.35" class="st1" width="6.88" height="1.06"/>
	<rect x="20.11" y="18.27" class="st1" width="3.97" height="1.06"/>
	<path class="st1" d="M29.4,24.56h-1.06c0-1.16-0.94-2.1-2.1-2.1H0.01V21.4h26.23C27.98,21.4,29.4,22.82,29.4,24.56z"/>
</g>
<g id="Windy_Cloudy" class="st0">
	<g class="st1">
		<g>
			<path d="M28.18,12.88c-0.07,0-0.14,0-0.21,0.01c0-0.06,0-0.12,0-0.18c0-2.41-1.96-4.37-4.37-4.37c-0.57,0-1.14,0.11-1.66,0.33
				c-0.8-1.23-2.17-1.98-3.66-1.98c-1.6,0-3.06,0.87-3.82,2.26c-0.23-0.04-0.47-0.06-0.7-0.06c-1.03,0-2.02,0.37-2.8,1.04
				c-0.64,0.56-1.1,1.29-1.32,2.1c-0.24-0.04-0.49-0.06-0.74-0.06c-2.36,0-4.28,1.92-4.28,4.28c0,2.36,1.92,4.28,4.28,4.28h19.28
				c2.1,0,3.82-1.71,3.82-3.82C32,14.59,30.29,12.88,28.18,12.88z M28.18,19.61H8.9c-1.86,0-3.37-1.51-3.37-3.37
				c0-1.86,1.51-3.37,3.37-3.37c0.33,0,0.65,0.05,0.96,0.14c0.48,0.14,0.93,0.39,1.31,0.73c0.19,0.17,0.47,0.15,0.64-0.03
				c0.17-0.19,0.15-0.47-0.03-0.64c-0.37-0.34-0.8-0.61-1.26-0.79c0.17-0.64,0.53-1.22,1.04-1.67c0.61-0.53,1.39-0.82,2.2-0.82
				c0.56,0,1.11,0.14,1.59,0.4c0.22,0.12,0.5,0.04,0.62-0.18c0.12-0.22,0.04-0.5-0.18-0.62c-0.14-0.07-0.27-0.14-0.42-0.2
				c0.63-0.99,1.73-1.6,2.92-1.6c1.16,0,2.22,0.57,2.86,1.51C21,9.2,20.86,9.3,20.73,9.42c-0.19,0.17-0.21,0.45-0.04,0.64
				c0.17,0.19,0.45,0.21,0.64,0.04c0.63-0.55,1.44-0.86,2.28-0.86c1.91,0,3.46,1.55,3.46,3.46c0,0.21-0.02,0.41-0.05,0.61
				c0,0.01,0,0.02-0.01,0.04c-0.04,0.2-0.09,0.39-0.16,0.58c-0.09,0.23,0.03,0.5,0.26,0.59c0.05,0.02,0.11,0.03,0.16,0.03
				c0.18,0,0.36-0.11,0.43-0.29c0.05-0.14,0.1-0.29,0.14-0.44c0.12-0.01,0.23-0.02,0.35-0.02c1.6,0,2.91,1.3,2.91,2.91
				C31.09,18.3,29.79,19.61,28.18,19.61z"/>
		</g>
	</g>
	<g class="st1">
		<rect x="0" y="16.02" width="6.88" height="0.68"/>
		<path d="M20.61,16.26c0,1.64-1.34,2.98-2.98,2.98H2.55v-0.68h15.08c1.27,0,2.3-1.04,2.3-2.3c0-0.25-0.04-0.5-0.12-0.72
			c-0.23-0.71-0.8-1.27-1.51-1.49c-0.21-0.06-0.44-0.1-0.67-0.1c-0.1,0-0.21,0.01-0.3,0.03c-0.29,0.03-0.57,0.13-0.81,0.26
			c-0.01,0-0.01,0-0.01,0c-0.38,0.22-0.69,0.53-0.9,0.91c0,0.01-0.01,0.01-0.01,0.01c-0.03,0.12-0.05,0.24-0.05,0.37
			c0,0.75,0.61,1.35,1.35,1.35c0.75,0,1.35-0.61,1.35-1.35h0.68c0,1.12-0.92,2.04-2.04,2.04c-0.58,0-1.11-0.24-1.48-0.64
			c-0.34-0.36-0.55-0.85-0.55-1.39c0-0.24,0.05-0.47,0.12-0.68c0-0.01,0-0.01,0.01-0.02c0.3-0.54,0.75-0.98,1.3-1.25
			c0.31-0.16,0.66-0.26,1.02-0.3c0.1-0.01,0.2-0.01,0.3-0.01c1.39,0,2.57,0.97,2.89,2.27C20.58,15.77,20.61,16.01,20.61,16.26z"/>
		<rect x="4.26" y="20.77" width="6.16" height="0.68"/>
		<rect x="8.55" y="24.69" width="4.43" height="0.68"/>
		<rect x="12.96" y="20.77" width="2.56" height="0.68"/>
		<path d="M18.94,24.82h-0.68c0-0.75-0.61-1.35-1.35-1.35H0v-0.68h16.91C18.03,22.78,18.94,23.7,18.94,24.82z"/>
	</g>
</g>
<path id="Snow" class="st0" d="M32,14.07l-0.75-0.76l-2.17,2.18h-8.82c-0.15-1.18-0.77-2.21-1.67-2.89l4.4-7.63l2.98-0.8L25.7,3.15
	l-2.68,0.71L22.3,1.19l-1.02,0.27l0.79,2.98l-4.4,7.63c-0.51-0.22-1.08-0.34-1.67-0.34s-1.16,0.12-1.67,0.34l-4.4-7.63l0.79-2.98
	L9.7,1.19L8.98,3.86L6.3,3.15L6.03,4.17l2.98,0.8l4.4,7.63c-0.9,0.68-1.52,1.71-1.67,2.89H2.92l-2.17-2.18L0,14.07l1.96,1.96
	L0,17.98l0.75,0.75l2.18-2.18h8.81c0.15,1.18,0.77,2.21,1.67,2.89L9,27.08l-2.97,0.79L6.3,28.9l2.68-0.71l0.72,2.67l1.02-0.28
	l-0.8-2.97V27.6l4.41-7.63c0.51,0.22,1.08,0.34,1.67,0.34s1.16-0.12,1.67-0.34l4.41,7.63v0.01l-0.8,2.97l1.02,0.28l0.72-2.67
	l2.68,0.71l0.27-1.03L23,27.08l-4.41-7.64c0.9-0.68,1.52-1.71,1.67-2.89h8.81l2.18,2.18L32,17.98l-1.95-1.95L32,14.07z M19.18,16.55
	c-0.12,0.79-0.54,1.48-1.13,1.96c-0.27,0.23-0.58,0.41-0.92,0.53c-0.35,0.14-0.73,0.21-1.13,0.21s-0.78-0.07-1.13-0.21
	c-0.34-0.12-0.65-0.3-0.92-0.53c-0.59-0.48-1.01-1.17-1.13-1.96c-0.04-0.17-0.05-0.35-0.05-0.53c0-0.18,0.01-0.36,0.05-0.53
	c0.12-0.79,0.54-1.48,1.13-1.96c0.27-0.23,0.58-0.41,0.92-0.53c0.35-0.14,0.73-0.21,1.13-0.21s0.78,0.07,1.13,0.21
	c0.34,0.12,0.65,0.3,0.92,0.53c0.59,0.48,1.01,1.17,1.13,1.96c0.04,0.17,0.05,0.35,0.05,0.53C19.23,16.2,19.22,16.38,19.18,16.55z"
	/>
<g id="Snow_Cloudy" class="st0">
	<g class="st1">
		<g>
			<path d="M27.54,11.42c-0.08,0-0.17,0-0.25,0.01c0-0.07,0-0.14,0-0.22c0-2.81-2.29-5.1-5.1-5.1c-0.67,0-1.33,0.13-1.94,0.38
				c-0.94-1.44-2.53-2.32-4.28-2.32c-1.87,0-3.58,1.02-4.47,2.64c-0.27-0.04-0.55-0.07-0.82-0.07c-1.2,0-2.36,0.43-3.27,1.22
				c-0.75,0.65-1.29,1.51-1.55,2.46C5.58,10.37,5.29,10.34,5,10.34c-2.76,0-5,2.24-5,5c0,2.76,2.24,5,5,5h22.54
				c2.46,0,4.46-2,4.46-4.46C32,13.42,30,11.42,27.54,11.42z M27.54,19.28H5c-2.17,0-3.94-1.77-3.94-3.94
				c0-2.17,1.77-3.94,3.94-3.94c0.38,0,0.76,0.05,1.12,0.16c0.56,0.17,1.08,0.46,1.53,0.86c0.22,0.2,0.55,0.18,0.75-0.04
				c0.2-0.22,0.18-0.55-0.04-0.75c-0.44-0.4-0.94-0.71-1.47-0.93c0.2-0.75,0.63-1.43,1.22-1.95C8.82,8.14,9.73,7.8,10.68,7.8
				c0.65,0,1.29,0.16,1.86,0.47c0.26,0.14,0.58,0.04,0.72-0.21c0.14-0.26,0.04-0.58-0.21-0.72c-0.16-0.09-0.32-0.16-0.49-0.23
				c0.74-1.15,2.02-1.87,3.41-1.87c1.35,0,2.59,0.66,3.34,1.76c-0.17,0.12-0.33,0.24-0.49,0.38c-0.22,0.19-0.24,0.53-0.05,0.75
				c0.19,0.22,0.53,0.24,0.75,0.05c0.74-0.65,1.68-1,2.66-1c2.23,0,4.04,1.81,4.04,4.04c0,0.24-0.02,0.48-0.06,0.72
				c0,0.01,0,0.03-0.01,0.04c-0.04,0.23-0.11,0.45-0.19,0.68c-0.1,0.27,0.03,0.58,0.31,0.69c0.06,0.02,0.13,0.03,0.19,0.03
				c0.21,0,0.42-0.13,0.5-0.34c0.06-0.17,0.12-0.34,0.16-0.51c0.14-0.02,0.27-0.02,0.41-0.02c1.87,0,3.4,1.53,3.4,3.4
				C30.94,17.76,29.41,19.28,27.54,19.28z"/>
		</g>
	</g>
	<path class="st1" d="M17.91,23.21L17.7,23l-0.6,0.61h-2.46c-0.04-0.33-0.21-0.62-0.46-0.8l1.22-2.12l0.83-0.22l-0.08-0.28
		l-0.75,0.2l-0.2-0.74l-0.28,0.08l0.22,0.83l-1.22,2.12c-0.14-0.06-0.3-0.09-0.46-0.09s-0.32,0.03-0.46,0.09l-1.22-2.12l0.22-0.83
		l-0.28-0.08l-0.2,0.74l-0.75-0.2l-0.08,0.28l0.83,0.22l1.22,2.12c-0.25,0.19-0.42,0.48-0.46,0.8H9.81L9.21,23L9,23.21l0.55,0.55
		L9,24.3l0.21,0.21l0.61-0.61h2.45c0.04,0.33,0.21,0.62,0.46,0.8l-1.23,2.13l-0.83,0.22l0.08,0.29l0.75-0.2l0.2,0.74l0.28-0.08
		l-0.22-0.83v0l1.23-2.12c0.14,0.06,0.3,0.09,0.46,0.09s0.32-0.03,0.46-0.09l1.23,2.12v0l-0.22,0.83l0.28,0.08l0.2-0.74l0.75,0.2
		l0.08-0.29l-0.83-0.22l-1.23-2.13c0.25-0.19,0.42-0.48,0.46-0.8h2.45l0.61,0.61l0.21-0.21l-0.54-0.54L17.91,23.21z M14.34,23.9
		c-0.03,0.22-0.15,0.41-0.31,0.55c-0.08,0.06-0.16,0.11-0.26,0.15c-0.1,0.04-0.2,0.06-0.31,0.06s-0.22-0.02-0.31-0.06
		c-0.09-0.03-0.18-0.08-0.26-0.15c-0.16-0.13-0.28-0.33-0.31-0.55c-0.01-0.05-0.01-0.1-0.01-0.15c0-0.05,0-0.1,0.01-0.15
		c0.03-0.22,0.15-0.41,0.31-0.55c0.08-0.06,0.16-0.11,0.26-0.15c0.1-0.04,0.2-0.06,0.31-0.06s0.22,0.02,0.31,0.06
		c0.09,0.03,0.18,0.08,0.26,0.15c0.16,0.13,0.28,0.33,0.31,0.55c0.01,0.05,0.01,0.1,0.01,0.15C14.36,23.8,14.35,23.85,14.34,23.9z"
		/>
	<path class="st1" d="M25,20.1l-0.14-0.14l-0.39,0.4h-1.6c-0.03-0.21-0.14-0.4-0.3-0.53l0.8-1.39l0.54-0.15l-0.05-0.19l-0.49,0.13
		l-0.13-0.49l-0.19,0.05l0.14,0.54l-0.8,1.39c-0.09-0.04-0.2-0.06-0.3-0.06s-0.21,0.02-0.3,0.06l-0.8-1.39l0.14-0.54l-0.19-0.05
		l-0.13,0.49l-0.49-0.13l-0.05,0.19l0.54,0.15l0.8,1.39c-0.16,0.12-0.28,0.31-0.3,0.53h-1.6l-0.39-0.4l-0.14,0.14l0.36,0.36
		l-0.36,0.35l0.14,0.14l0.4-0.4h1.6c0.03,0.21,0.14,0.4,0.3,0.53l-0.8,1.39l-0.54,0.14l0.05,0.19l0.49-0.13l0.13,0.49l0.19-0.05
		l-0.15-0.54v0l0.8-1.39c0.09,0.04,0.2,0.06,0.3,0.06s0.21-0.02,0.3-0.06l0.8,1.39v0l-0.15,0.54l0.19,0.05l0.13-0.49l0.49,0.13
		l0.05-0.19l-0.54-0.14l-0.8-1.39c0.16-0.12,0.28-0.31,0.3-0.53h1.6l0.4,0.4L25,20.81l-0.35-0.35L25,20.1z M22.66,20.55
		c-0.02,0.14-0.1,0.27-0.21,0.36c-0.05,0.04-0.11,0.07-0.17,0.1c-0.06,0.03-0.13,0.04-0.21,0.04s-0.14-0.01-0.21-0.04
		c-0.06-0.02-0.12-0.05-0.17-0.1c-0.11-0.09-0.18-0.21-0.21-0.36c-0.01-0.03-0.01-0.06-0.01-0.1c0-0.03,0-0.07,0.01-0.1
		c0.02-0.14,0.1-0.27,0.21-0.36c0.05-0.04,0.11-0.07,0.17-0.1c0.06-0.03,0.13-0.04,0.21-0.04s0.14,0.01,0.21,0.04
		c0.06,0.02,0.12,0.05,0.17,0.1c0.11,0.09,0.18,0.21,0.21,0.36c0.01,0.03,0.01,0.06,0.01,0.1C22.67,20.49,22.67,20.52,22.66,20.55z"
		/>
	<path class="st1" d="M18.57,16.1l-0.09-0.09l-0.26,0.26h-1.05c-0.02-0.14-0.09-0.26-0.2-0.34l0.52-0.91l0.36-0.1l-0.03-0.12
		l-0.32,0.08l-0.09-0.32l-0.12,0.03l0.09,0.36l-0.52,0.91c-0.06-0.03-0.13-0.04-0.2-0.04c-0.07,0-0.14,0.01-0.2,0.04l-0.52-0.91
		l0.09-0.36l-0.12-0.03l-0.09,0.32l-0.32-0.08l-0.03,0.12l0.36,0.1l0.52,0.91c-0.11,0.08-0.18,0.2-0.2,0.34H15.1l-0.26-0.26
		l-0.09,0.09l0.23,0.23l-0.23,0.23l0.09,0.09l0.26-0.26h1.05c0.02,0.14,0.09,0.26,0.2,0.34l-0.53,0.91l-0.35,0.09l0.03,0.12
		l0.32-0.08l0.09,0.32l0.12-0.03l-0.1-0.35v0l0.53-0.91c0.06,0.03,0.13,0.04,0.2,0.04c0.07,0,0.14-0.01,0.2-0.04l0.53,0.91v0
		l-0.1,0.35l0.12,0.03l0.09-0.32l0.32,0.08l0.03-0.12l-0.35-0.09l-0.53-0.91c0.11-0.08,0.18-0.2,0.2-0.34h1.05l0.26,0.26l0.09-0.09
		l-0.23-0.23L18.57,16.1z M17.04,16.39c-0.01,0.09-0.06,0.18-0.13,0.23c-0.03,0.03-0.07,0.05-0.11,0.06
		c-0.04,0.02-0.09,0.03-0.13,0.03c-0.05,0-0.09-0.01-0.13-0.03c-0.04-0.01-0.08-0.04-0.11-0.06c-0.07-0.06-0.12-0.14-0.13-0.23
		c0-0.02-0.01-0.04-0.01-0.06c0-0.02,0-0.04,0.01-0.06c0.01-0.09,0.06-0.18,0.13-0.23c0.03-0.03,0.07-0.05,0.11-0.06
		c0.04-0.02,0.09-0.03,0.13-0.03c0.05,0,0.09,0.01,0.13,0.03c0.04,0.01,0.08,0.04,0.11,0.06c0.07,0.06,0.12,0.14,0.13,0.23
		c0,0.02,0.01,0.04,0.01,0.06C17.04,16.35,17.04,16.37,17.04,16.39z"/>
</g>
<g id="Moon" class="st0">
	<path class="st1" d="M16,32.03c-8.82,0-16-7.18-16-16s7.18-16,16-16s16,7.18,16,16S24.82,32.03,16,32.03z M16,1.09
		c-8.23,0-14.93,6.7-14.93,14.93S7.76,30.96,16,30.96s14.93-6.7,14.93-14.93S24.23,1.09,16,1.09z"/>
	<path class="st1" d="M8.58,16.02c0-5.25,2.63-9.89,6.64-12.67C8.56,3.75,3.29,9.26,3.29,16.02S8.56,28.3,15.22,28.7
		C11.21,25.91,8.58,21.28,8.58,16.02z M4.91,15.81c-0.16,0-0.3-0.13-0.3-0.3c0-0.16,0.14-0.3,0.3-0.3c0.17,0,0.3,0.14,0.3,0.3
		C5.21,15.68,5.08,15.81,4.91,15.81z M6.9,20.64c-0.32,0-0.59-0.26-0.59-0.59s0.27-0.59,0.59-0.59c0.33,0,0.59,0.26,0.59,0.59
		S7.23,20.64,6.9,20.64z M7.1,10.6c-0.22,0-0.4-0.18-0.4-0.4c0-0.22,0.18-0.4,0.4-0.4c0.22,0,0.39,0.18,0.39,0.4
		C7.49,10.42,7.32,10.6,7.1,10.6z"/>
	<circle class="st2" cx="17.41" cy="13.77" r="0.69"/>
	<circle class="st2" cx="21.04" cy="21.49" r="0.89"/>
	<circle class="st2" cx="25.75" cy="13.22" r="1.18"/>
	<circle class="st2" cx="23.29" cy="8.61" r="0.76"/>
</g>
<g id="Night_Cloudy" class="st0">
	<g class="st1">
		<g>
			<path d="M27.07,20.96c-0.14-0.35-0.34-0.68-0.57-0.97c-0.7-0.87-1.77-1.43-2.98-1.43h-0.21v-0.18c0-2.41-1.95-4.36-4.36-4.36
				c-0.26,0-0.52,0.02-0.77,0.07c-0.3,0.05-0.6,0.14-0.88,0.25c-0.06-0.09-0.13-0.19-0.2-0.27c-0.81-1.07-2.08-1.71-3.46-1.71
				c-1.59,0-3.05,0.88-3.82,2.25c-0.23-0.03-0.46-0.05-0.7-0.05c-1.03,0-2.02,0.37-2.79,1.04c-0.64,0.56-1.1,1.29-1.32,2.1
				c-0.24-0.04-0.49-0.07-0.74-0.07C1.92,17.63,0,19.55,0,21.91c0,2.35,1.92,4.27,4.27,4.27h19.25c2.11,0,3.82-1.71,3.82-3.81
				C27.34,21.87,27.24,21.4,27.07,20.96z M23.52,25.27H4.27c-1.85,0-3.36-1.51-3.36-3.36c0-1.86,1.51-3.37,3.36-3.37
				c0.33,0,0.65,0.05,0.96,0.14c0.48,0.14,0.92,0.39,1.3,0.73c0.19,0.17,0.47,0.16,0.64-0.03s0.16-0.47-0.03-0.64
				c-0.37-0.34-0.8-0.61-1.26-0.79c0.17-0.64,0.54-1.23,1.04-1.67c0.61-0.52,1.39-0.82,2.2-0.82c0.56,0,1.11,0.14,1.59,0.41
				c0.22,0.11,0.5,0.03,0.62-0.19c0.12-0.22,0.03-0.49-0.19-0.61c-0.13-0.08-0.27-0.14-0.41-0.2c0.63-0.98,1.72-1.6,2.91-1.6
				c1.16,0,2.22,0.57,2.86,1.51c-0.15,0.1-0.29,0.2-0.42,0.32c-0.19,0.17-0.21,0.45-0.04,0.64c0.16,0.19,0.45,0.21,0.64,0.04
				c0.2-0.17,0.42-0.32,0.65-0.44c0.32-0.17,0.66-0.29,1.01-0.35c0.2-0.04,0.41-0.06,0.61-0.06c1.91,0,3.46,1.54,3.46,3.45
				c0,0.2-0.02,0.41-0.06,0.61v0.04c-0.04,0.18-0.09,0.35-0.15,0.53c-0.01,0.01-0.02,0.03-0.02,0.04c-0.09,0.24,0.03,0.5,0.27,0.59
				c0.05,0.02,0.1,0.03,0.16,0.03c0.18,0,0.35-0.11,0.42-0.3c0.01-0.02,0.01-0.03,0.02-0.05c0.05-0.13,0.08-0.26,0.12-0.38
				c0.12-0.02,0.24-0.03,0.35-0.03c0.72,0,1.37,0.26,1.87,0.68c0.32,0.28,0.59,0.62,0.77,1c0.17,0.37,0.27,0.79,0.27,1.23
				C26.43,23.97,25.13,25.27,23.52,25.27z"/>
		</g>
	</g>
	<path class="st1" d="M30.81,17.32h-0.29c-4.92,0-8.92-4-8.92-8.92c0-0.49,0.03-0.95,0.1-1.38l0.19-1.14L20.9,6.47
		c-2.37,1.43-3.84,4.04-3.84,6.81c0,0.27,0.01,0.53,0.04,0.79c0.07,0.08,0.14,0.18,0.2,0.27c0.28-0.11,0.58-0.2,0.88-0.25
		c-0.04-0.26-0.06-0.54-0.06-0.81c0-2.02,0.91-3.94,2.42-5.24c-0.01,0.12-0.01,0.24-0.01,0.36c0,5.22,4.03,9.51,9.14,9.95
		c-0.89,0.82-1.98,1.39-3.17,1.64c0.23,0.29,0.43,0.62,0.57,0.97c1.65-0.44,3.12-1.4,4.2-2.78L32,17.24L30.81,17.32z"/>
</g>
<g id="Cloudy" class="st0">
	<path class="st1" d="M27.54,15.19c-0.08,0-0.17,0-0.25,0.01c0-0.07,0-0.14,0-0.22c0-2.81-2.29-5.1-5.1-5.1
		c-0.67,0-1.33,0.13-1.94,0.38c-0.94-1.44-2.53-2.32-4.28-2.32c-1.87,0-3.58,1.02-4.47,2.64c-0.27-0.04-0.55-0.07-0.82-0.07
		c-1.2,0-2.36,0.43-3.27,1.22c-0.75,0.65-1.29,1.51-1.55,2.46C5.58,14.14,5.29,14.11,5,14.11c-2.76,0-5,2.24-5,5c0,2.76,2.24,5,5,5
		h22.54c2.46,0,4.46-2,4.46-4.46C32,17.19,30,15.19,27.54,15.19z M27.54,23.05H5c-2.17,0-3.94-1.77-3.94-3.94
		c0-2.17,1.77-3.94,3.94-3.94c0.38,0,0.76,0.05,1.12,0.16c0.56,0.17,1.08,0.46,1.53,0.86c0.22,0.2,0.55,0.18,0.75-0.04
		c0.2-0.22,0.18-0.55-0.04-0.75c-0.44-0.4-0.94-0.71-1.47-0.93c0.2-0.75,0.63-1.43,1.22-1.95c0.71-0.62,1.63-0.96,2.57-0.96
		c0.65,0,1.29,0.16,1.86,0.47c0.26,0.14,0.58,0.04,0.72-0.21c0.14-0.26,0.04-0.58-0.21-0.72c-0.16-0.09-0.32-0.16-0.49-0.23
		C13.29,9.72,14.58,9,15.97,9c1.35,0,2.59,0.66,3.34,1.76c-0.17,0.12-0.33,0.24-0.49,0.38c-0.22,0.19-0.24,0.53-0.05,0.75
		c0.19,0.22,0.53,0.24,0.75,0.05c0.74-0.65,1.68-1,2.66-1c2.23,0,4.04,1.81,4.04,4.04c0,0.24-0.02,0.48-0.06,0.72
		c0,0.01,0,0.03-0.01,0.04c-0.04,0.23-0.11,0.45-0.19,0.68C25.86,16.69,26,17,26.28,17.1c0.06,0.02,0.13,0.03,0.19,0.03
		c0.21,0,0.42-0.13,0.5-0.34c0.06-0.17,0.12-0.34,0.16-0.51c0.14-0.02,0.27-0.02,0.41-0.02c1.87,0,3.4,1.53,3.4,3.4
		C30.94,21.53,29.41,23.05,27.54,23.05z"/>
</g>
</svg>
