<?xml version="1.0" encoding="utf-8"?>
<!-- Generator: Adobe Illustrator 26.0.2, SVG Export Plug-In . SVG Version: 6.00 Build 0)  -->
<svg version="1.1" id="Layer_1" xmlns="http://www.w3.org/2000/svg" xmlns:xlink="http://www.w3.org/1999/xlink" x="0px" y="0px"
	 viewBox="0 0 32 32" style="enable-background:new 0 0 32 32;" xml:space="preserve">
<style type="text/css">
	.st0{fill:none;stroke:#000000;stroke-width:1.0625;stroke-miterlimit:10;}
</style>
<g id="Moon">
	<path d="M16,32.03c-8.82,0-16-7.18-16-16s7.18-16,16-16s16,7.18,16,16S24.82,32.03,16,32.03z M16,1.09
		c-8.23,0-14.93,6.7-14.93,14.93S7.76,30.96,16,30.96s14.93-6.7,14.93-14.93S24.23,1.09,16,1.09z"/>
	<path d="M8.58,16.02c0-5.25,2.63-9.89,6.64-12.67C8.56,3.75,3.29,9.26,3.29,16.02S8.56,28.3,15.22,28.7
		C11.21,25.91,8.58,21.28,8.58,16.02z M4.91,15.81c-0.16,0-0.3-0.13-0.3-0.3c0-0.16,0.14-0.3,0.3-0.3c0.17,0,0.3,0.14,0.3,0.3
		C5.21,15.68,5.08,15.81,4.91,15.81z M6.9,20.64c-0.32,0-0.59-0.26-0.59-0.59s0.27-0.59,0.59-0.59c0.33,0,0.59,0.26,0.59,0.59
		S7.23,20.64,6.9,20.64z M7.1,10.6c-0.22,0-0.4-0.18-0.4-0.4c0-0.22,0.18-0.4,0.4-0.4c0.22,0,0.39,0.18,0.39,0.4S7.32,10.6,7.1,10.6
		z"/>
	<circle class="st0" cx="17.41" cy="13.77" r="0.69"/>
	<circle class="st0" cx="21.04" cy="21.49" r="0.89"/>
	<circle class="st0" cx="25.75" cy="13.22" r="1.18"/>
	<circle class="st0" cx="23.29" cy="8.61" r="0.76"/>
</g>
</svg>
