<?xml version="1.0" encoding="utf-8"?>
<!-- Generator: Adobe Illustrator 26.0.2, SVG Export Plug-In . SVG Version: 6.00 Build 0)  -->
<svg version="1.1" id="Layer_1" xmlns="http://www.w3.org/2000/svg" xmlns:xlink="http://www.w3.org/1999/xlink" x="0px" y="0px"
	 viewBox="0 0 32 32" style="enable-background:new 0 0 32 32;" xml:space="preserve">
<g id="Night_Cloudy">
	<g>
		<g>
			<path d="M27.07,20.96c-0.14-0.35-0.34-0.68-0.57-0.97c-0.7-0.87-1.77-1.43-2.98-1.43h-0.21v-0.18c0-2.41-1.95-4.36-4.36-4.36
				c-0.26,0-0.52,0.02-0.77,0.07c-0.3,0.05-0.6,0.14-0.88,0.25c-0.06-0.09-0.13-0.19-0.2-0.27c-0.81-1.07-2.08-1.71-3.46-1.71
				c-1.59,0-3.05,0.88-3.82,2.25c-0.23-0.03-0.46-0.05-0.7-0.05c-1.03,0-2.02,0.37-2.79,1.04c-0.64,0.56-1.1,1.29-1.32,2.1
				c-0.24-0.04-0.49-0.07-0.74-0.07C1.92,17.63,0,19.55,0,21.91c0,2.35,1.92,4.27,4.27,4.27h19.25c2.11,0,3.82-1.71,3.82-3.81
				C27.34,21.87,27.24,21.4,27.07,20.96z M23.52,25.27H4.27c-1.85,0-3.36-1.51-3.36-3.36c0-1.86,1.51-3.37,3.36-3.37
				c0.33,0,0.65,0.05,0.96,0.14c0.48,0.14,0.92,0.39,1.3,0.73c0.19,0.17,0.47,0.16,0.64-0.03s0.16-0.47-0.03-0.64
				c-0.37-0.34-0.8-0.61-1.26-0.79c0.17-0.64,0.54-1.23,1.04-1.67c0.61-0.52,1.39-0.82,2.2-0.82c0.56,0,1.11,0.14,1.59,0.41
				c0.22,0.11,0.5,0.03,0.62-0.19c0.12-0.22,0.03-0.49-0.19-0.61c-0.13-0.08-0.27-0.14-0.41-0.2c0.63-0.98,1.72-1.6,2.91-1.6
				c1.16,0,2.22,0.57,2.86,1.51c-0.15,0.1-0.29,0.2-0.42,0.32c-0.19,0.17-0.21,0.45-0.04,0.64c0.16,0.19,0.45,0.21,0.64,0.04
				c0.2-0.17,0.42-0.32,0.65-0.44c0.32-0.17,0.66-0.29,1.01-0.35c0.2-0.04,0.41-0.06,0.61-0.06c1.91,0,3.46,1.54,3.46,3.45
				c0,0.2-0.02,0.41-0.06,0.61v0.04c-0.04,0.18-0.09,0.35-0.15,0.53c-0.01,0.01-0.02,0.03-0.02,0.04c-0.09,0.24,0.03,0.5,0.27,0.59
				c0.05,0.02,0.1,0.03,0.16,0.03c0.18,0,0.35-0.11,0.42-0.3c0.01-0.02,0.01-0.03,0.02-0.05c0.05-0.13,0.08-0.26,0.12-0.38
				c0.12-0.02,0.24-0.03,0.35-0.03c0.72,0,1.37,0.26,1.87,0.68c0.32,0.28,0.59,0.62,0.77,1c0.17,0.37,0.27,0.79,0.27,1.23
				C26.43,23.97,25.13,25.27,23.52,25.27z"/>
		</g>
	</g>
	<path d="M30.81,17.32h-0.29c-4.92,0-8.92-4-8.92-8.92c0-0.49,0.03-0.95,0.1-1.38l0.19-1.14L20.9,6.47
		c-2.37,1.43-3.84,4.04-3.84,6.81c0,0.27,0.01,0.53,0.04,0.79c0.07,0.08,0.14,0.18,0.2,0.27c0.28-0.11,0.58-0.2,0.88-0.25
		c-0.04-0.26-0.06-0.54-0.06-0.81c0-2.02,0.91-3.94,2.42-5.24c-0.01,0.12-0.01,0.24-0.01,0.36c0,5.22,4.03,9.51,9.14,9.95
		c-0.89,0.82-1.98,1.39-3.17,1.64c0.23,0.29,0.43,0.62,0.57,0.97c1.65-0.44,3.12-1.4,4.2-2.78L32,17.24L30.81,17.32z"/>
</g>
</svg>
