<?xml version="1.0" encoding="utf-8"?>
<!-- Generator: Adobe Illustrator 26.0.2, SVG Export Plug-In . SVG Version: 6.00 Build 0)  -->
<svg version="1.1" id="Layer_1" xmlns="http://www.w3.org/2000/svg" xmlns:xlink="http://www.w3.org/1999/xlink" x="0px" y="0px"
	 viewBox="0 0 32 32" style="enable-background:new 0 0 32 32;" xml:space="preserve">
<g id="Rain_Cloudy">
	<g>
		<g>
			<path d="M27.54,10.68c-0.08,0-0.17,0-0.25,0.01c0-0.07,0-0.14,0-0.22c0-2.81-2.29-5.1-5.1-5.1c-0.67,0-1.33,0.13-1.94,0.38
				c-0.94-1.44-2.53-2.32-4.28-2.32c-1.87,0-3.58,1.02-4.47,2.64C11.23,6.02,10.95,6,10.68,6c-1.2,0-2.36,0.43-3.27,1.22
				C6.66,7.87,6.12,8.73,5.86,9.68C5.58,9.63,5.29,9.6,5,9.6c-2.76,0-5,2.24-5,5s2.24,5,5,5h22.54c2.46,0,4.46-2,4.46-4.46
				C32,12.69,30,10.68,27.54,10.68z M27.54,18.54H5c-2.17,0-3.94-1.77-3.94-3.94S2.83,10.66,5,10.66c0.38,0,0.76,0.05,1.12,0.16
				c0.56,0.17,1.08,0.46,1.53,0.86c0.22,0.2,0.55,0.18,0.75-0.04s0.18-0.55-0.04-0.75c-0.44-0.4-0.94-0.71-1.47-0.93
				c0.2-0.75,0.63-1.43,1.22-1.95c0.71-0.62,1.63-0.96,2.57-0.96c0.65,0,1.29,0.16,1.86,0.47c0.26,0.14,0.58,0.04,0.72-0.21
				c0.14-0.26,0.04-0.58-0.21-0.72c-0.16-0.09-0.32-0.16-0.49-0.23c0.74-1.15,2.02-1.87,3.41-1.87c1.35,0,2.59,0.66,3.34,1.76
				c-0.17,0.12-0.33,0.24-0.49,0.38c-0.22,0.19-0.24,0.53-0.05,0.75c0.19,0.22,0.53,0.24,0.75,0.05c0.74-0.65,1.68-1,2.66-1
				c2.23,0,4.04,1.81,4.04,4.04c0,0.24-0.02,0.48-0.06,0.72c0,0.01,0,0.03-0.01,0.04c-0.04,0.23-0.11,0.45-0.19,0.68
				c-0.1,0.27,0.03,0.58,0.31,0.69c0.06,0.02,0.13,0.03,0.19,0.03c0.21,0,0.42-0.13,0.5-0.34c0.06-0.17,0.12-0.34,0.16-0.51
				c0.14-0.02,0.27-0.02,0.41-0.02c1.87,0,3.4,1.53,3.4,3.4C30.94,17.02,29.41,18.54,27.54,18.54z"/>
		</g>
	</g>
	<path d="M12.18,28.62c-1.32,0-2.4-1.07-2.4-2.4c0-1.1,1.6-4.3,1.92-4.93l0.47-0.93l0.47,0.93c0.32,0.63,1.92,3.83,1.92,4.93
		C14.57,27.55,13.5,28.62,12.18,28.62z M12.18,22.74c-0.66,1.38-1.33,2.99-1.33,3.48c0,0.74,0.6,1.33,1.33,1.33
		c0.74,0,1.33-0.6,1.33-1.33C13.51,25.73,12.83,24.12,12.18,22.74z"/>
	<path d="M18.55,24.05c-1.02,0-1.85-0.83-1.85-1.85c0-0.8,1.06-2.93,1.38-3.57l0.47-0.93l0.47,0.93c0.32,0.64,1.38,2.77,1.38,3.57
		C20.41,23.22,19.58,24.05,18.55,24.05z M18.55,20.09c-0.43,0.93-0.79,1.83-0.79,2.11c0,0.44,0.35,0.79,0.79,0.79
		s0.79-0.35,0.79-0.79C19.35,21.92,18.99,21.02,18.55,20.09z"/>
	<path d="M14.04,18.17c-0.87,0-1.58-0.71-1.58-1.58c0-0.64,0.78-2.23,1.11-2.89l0.47-0.93l0.47,0.93c0.33,0.66,1.11,2.25,1.11,2.89
		C15.63,17.46,14.92,18.17,14.04,18.17z M14.04,15.17c-0.29,0.64-0.52,1.23-0.52,1.42c0,0.29,0.23,0.52,0.52,0.52
		s0.52-0.23,0.52-0.52C14.56,16.4,14.33,15.81,14.04,15.17z"/>
</g>
</svg>
