<?xml version="1.0" encoding="utf-8"?>
<!-- Generator: Adobe Illustrator 26.0.2, SVG Export Plug-In . SVG Version: 6.00 Build 0)  -->
<svg version="1.1" id="Layer_1" xmlns="http://www.w3.org/2000/svg" xmlns:xlink="http://www.w3.org/1999/xlink" x="0px" y="0px"
	 viewBox="0 0 32 32" style="enable-background:new 0 0 32 32;" xml:space="preserve">

<g id="Lightning">
	<g>
		<path fill="#FFEC44" d="M22.68,18.72h-2.22c-0.15,0-0.23-0.17-0.13-0.28l0.52-0.63h-1.38l-1.27,1.54c-0.14,0.17-0.02,0.44,0.21,0.44h2.08
			c0.22,0,0.33,0.26,0.18,0.42l-5.19,5.44c-0.05,0.05-0.12-0.01-0.09-0.07l1.38-2.42c0.13-0.22-0.03-0.5-0.29-0.5h-1.69
			c-0.21,0-0.33-0.23-0.22-0.41l2.93-4.45h-1.27l-3.58,5.44c-0.13,0.2,0.01,0.48,0.26,0.48h2.32l-3.42,5.99
			c-0.27,0.48,0.36,0.95,0.74,0.55l10.41-10.92C23.17,19.11,23,18.72,22.68,18.72z"/>
	</g>
	<g>
		<path fill="#FFFFFF" d="M27.54,8.88c-0.08,0-0.17,0-0.25,0.01c0-0.07,0-0.14,0-0.22c0-2.81-2.29-5.1-5.1-5.1c-0.67,0-1.33,0.13-1.94,0.38
			c-0.94-1.44-2.53-2.32-4.28-2.32c-1.87,0-3.58,1.02-4.47,2.64c-0.27-0.04-0.55-0.07-0.82-0.07c-1.2,0-2.36,0.43-3.27,1.22
			C6.66,6.07,6.12,6.93,5.86,7.88C5.58,7.83,5.29,7.81,5,7.81c-2.76,0-5,2.24-5,5c0,2.76,2.24,5,5,5h22.54c2.46,0,4.46-2,4.46-4.46
			C32,10.89,30,8.88,27.54,8.88z M27.54,16.75H5c-2.17,0-3.94-1.77-3.94-3.94c0-2.17,1.77-3.94,3.94-3.94
			c0.38,0,0.76,0.05,1.12,0.16C6.68,9.19,7.2,9.49,7.64,9.89c0.22,0.2,0.55,0.18,0.75-0.04C8.59,9.63,8.58,9.3,8.36,9.1
			C7.92,8.7,7.42,8.39,6.89,8.17c0.2-0.75,0.63-1.43,1.22-1.95c0.71-0.62,1.63-0.96,2.57-0.96c0.65,0,1.29,0.16,1.86,0.47
			c0.26,0.14,0.58,0.04,0.72-0.21c0.14-0.26,0.04-0.58-0.21-0.72c-0.16-0.09-0.32-0.16-0.49-0.23c0.74-1.15,2.02-1.87,3.41-1.87
			c1.35,0,2.59,0.66,3.34,1.76c-0.17,0.12-0.33,0.24-0.49,0.38c-0.22,0.19-0.24,0.53-0.05,0.75c0.19,0.22,0.53,0.24,0.75,0.05
			c0.74-0.65,1.68-1,2.66-1c2.23,0,4.04,1.81,4.04,4.04c0,0.24-0.02,0.48-0.06,0.72c0,0.01,0,0.03-0.01,0.04
			c-0.04,0.23-0.11,0.45-0.19,0.68c-0.1,0.27,0.03,0.58,0.31,0.69c0.06,0.02,0.13,0.03,0.19,0.03c0.21,0,0.42-0.13,0.5-0.34
			c0.06-0.17,0.12-0.34,0.16-0.51c0.14-0.02,0.27-0.02,0.41-0.02c1.87,0,3.4,1.53,3.4,3.4C30.94,15.22,29.41,16.75,27.54,16.75z"/>
	</g>
</g>
</svg>
