<?xml version="1.0" encoding="utf-8"?>
<!-- Generator: Adobe Illustrator 26.0.2, SVG Export Plug-In . SVG Version: 6.00 Build 0)  -->
<svg version="1.1" id="Layer_1" xmlns="http://www.w3.org/2000/svg" xmlns:xlink="http://www.w3.org/1999/xlink" x="0px" y="0px"
	 viewBox="0 0 32 32" style="enable-background:new 0 0 32 32;" xml:space="preserve">
<g id="Sleet">
	<g>
		<g>
			<path d="M27.54,11.57c-0.08,0-0.17,0-0.25,0.01c0-0.07,0-0.14,0-0.22c0-2.81-2.29-5.1-5.1-5.1c-0.67,0-1.33,0.13-1.94,0.38
				c-0.94-1.44-2.53-2.32-4.28-2.32c-1.87,0-3.58,1.02-4.47,2.64c-0.27-0.04-0.55-0.07-0.82-0.07c-1.2,0-2.36,0.43-3.27,1.22
				c-0.75,0.65-1.29,1.51-1.55,2.46C5.58,10.52,5.29,10.49,5,10.49c-2.76,0-5,2.24-5,5s2.24,5,5,5h22.54c2.46,0,4.46-2,4.46-4.46
				C32,13.58,30,11.57,27.54,11.57z M27.54,19.43H5c-2.17,0-3.94-1.77-3.94-3.94S2.83,11.55,5,11.55c0.38,0,0.76,0.05,1.12,0.16
				c0.56,0.17,1.08,0.46,1.53,0.86c0.22,0.2,0.55,0.18,0.75-0.04s0.18-0.55-0.04-0.75c-0.44-0.4-0.94-0.71-1.47-0.93
				c0.2-0.75,0.63-1.43,1.22-1.95c0.71-0.62,1.63-0.96,2.57-0.96c0.65,0,1.29,0.16,1.86,0.47c0.26,0.14,0.58,0.04,0.72-0.21
				c0.14-0.26,0.04-0.58-0.21-0.72c-0.16-0.09-0.32-0.16-0.49-0.23c0.74-1.15,2.02-1.87,3.41-1.87c1.35,0,2.59,0.66,3.34,1.76
				c-0.17,0.12-0.33,0.24-0.49,0.38c-0.22,0.19-0.24,0.53-0.05,0.75s0.53,0.24,0.75,0.05c0.74-0.65,1.68-1,2.66-1
				c2.23,0,4.04,1.81,4.04,4.04c0,0.24-0.02,0.48-0.06,0.72c0,0.01,0,0.03-0.01,0.04c-0.04,0.23-0.11,0.45-0.19,0.68
				c-0.1,0.27,0.03,0.58,0.31,0.69c0.06,0.02,0.13,0.03,0.19,0.03c0.21,0,0.42-0.13,0.5-0.34c0.06-0.17,0.12-0.34,0.16-0.51
				c0.14-0.02,0.27-0.02,0.41-0.02c1.87,0,3.4,1.53,3.4,3.4C30.94,17.91,29.41,19.43,27.54,19.43z"/>
		</g>
	</g>
	<rect x="3.92" y="20.97" transform="matrix(0.7076 -0.7066 0.7066 0.7076 -11.6263 14.907)" width="16.56" height="1.06"/>
	<rect x="9.71" y="18.69" transform="matrix(0.7076 -0.7066 0.7066 0.7076 -8.1811 18.6729)" width="17.53" height="1.06"/>
	<rect x="16.16" y="21.16" transform="matrix(0.7076 -0.7066 0.7066 0.7076 -9.1847 21.1818)" width="9.69" height="1.06"/>
</g>
</svg>
