<?xml version="1.0" encoding="utf-8"?>
<!-- Generator: Adobe Illustrator 26.0.2, SVG Export Plug-In . SVG Version: 6.00 Build 0)  -->
<svg version="1.1" id="Layer_1" xmlns="http://www.w3.org/2000/svg" xmlns:xlink="http://www.w3.org/1999/xlink" x="0px" y="0px"
	 viewBox="0 0 32 32" style="enable-background:new 0 0 32 32;" xml:space="preserve">
<path id="Snow" d="M32,14.07l-0.75-0.76l-2.17,2.18h-8.82c-0.15-1.18-0.77-2.21-1.67-2.89l4.4-7.63l2.98-0.8L25.7,3.15l-2.68,0.71
	L22.3,1.19l-1.02,0.27l0.79,2.98l-4.4,7.63c-0.51-0.22-1.08-0.34-1.67-0.34s-1.16,0.12-1.67,0.34l-4.4-7.63l0.79-2.98L9.7,1.19
	L8.98,3.86L6.3,3.15L6.03,4.17l2.98,0.8l4.4,7.63c-0.9,0.68-1.52,1.71-1.67,2.89H2.92l-2.17-2.18L0,14.07l1.96,1.96L0,17.98
	l0.75,0.75l2.18-2.18h8.81c0.15,1.18,0.77,2.21,1.67,2.89L9,27.08l-2.97,0.79L6.3,28.9l2.68-0.71l0.72,2.67l1.02-0.28l-0.8-2.97
	V27.6l4.41-7.63c0.51,0.22,1.08,0.34,1.67,0.34c0.59,0,1.16-0.12,1.67-0.34l4.41,7.63v0.01l-0.8,2.97l1.02,0.28l0.72-2.67l2.68,0.71
	l0.27-1.03L23,27.08l-4.41-7.64c0.9-0.68,1.52-1.71,1.67-2.89h8.81l2.18,2.18L32,17.98l-1.95-1.95L32,14.07z M19.18,16.55
	c-0.12,0.79-0.54,1.48-1.13,1.96c-0.27,0.23-0.58,0.41-0.92,0.53c-0.35,0.14-0.73,0.21-1.13,0.21s-0.78-0.07-1.13-0.21
	c-0.34-0.12-0.65-0.3-0.92-0.53c-0.59-0.48-1.01-1.17-1.13-1.96c-0.04-0.17-0.05-0.35-0.05-0.53s0.01-0.36,0.05-0.53
	c0.12-0.79,0.54-1.48,1.13-1.96c0.27-0.23,0.58-0.41,0.92-0.53c0.35-0.14,0.73-0.21,1.13-0.21s0.78,0.07,1.13,0.21
	c0.34,0.12,0.65,0.3,0.92,0.53c0.59,0.48,1.01,1.17,1.13,1.96c0.04,0.17,0.05,0.35,0.05,0.53C19.23,16.2,19.22,16.38,19.18,16.55z"
	/>
</svg>
