<?xml version="1.0" encoding="utf-8"?>
<!-- Generator: Adobe Illustrator 26.0.2, SVG Export Plug-In . SVG Version: 6.00 Build 0)  -->
<svg version="1.1" id="Layer_1" xmlns="http://www.w3.org/2000/svg" xmlns:xlink="http://www.w3.org/1999/xlink" x="0px" y="0px"
	 viewBox="0 0 32 32" style="enable-background:new 0 0 32 32;" xml:space="preserve">
<g id="Snow_Cloudy">
	<g>
		<g>
			<path d="M27.54,11.42c-0.08,0-0.17,0-0.25,0.01c0-0.07,0-0.14,0-0.22c0-2.81-2.29-5.1-5.1-5.1c-0.67,0-1.33,0.13-1.94,0.38
				c-0.94-1.44-2.53-2.32-4.28-2.32c-1.87,0-3.58,1.02-4.47,2.64c-0.27-0.04-0.55-0.07-0.82-0.07c-1.2,0-2.36,0.43-3.27,1.22
				c-0.75,0.65-1.29,1.51-1.55,2.46C5.58,10.37,5.29,10.34,5,10.34c-2.76,0-5,2.24-5,5s2.24,5,5,5h22.54c2.46,0,4.46-2,4.46-4.46
				S30,11.42,27.54,11.42z M27.54,19.28H5c-2.17,0-3.94-1.77-3.94-3.94S2.83,11.4,5,11.4c0.38,0,0.76,0.05,1.12,0.16
				c0.56,0.17,1.08,0.46,1.53,0.86c0.22,0.2,0.55,0.18,0.75-0.04s0.18-0.55-0.04-0.75c-0.44-0.4-0.94-0.71-1.47-0.93
				c0.2-0.75,0.63-1.43,1.22-1.95C8.82,8.14,9.73,7.8,10.68,7.8c0.65,0,1.29,0.16,1.86,0.47c0.26,0.14,0.58,0.04,0.72-0.21
				c0.14-0.26,0.04-0.58-0.21-0.72c-0.16-0.09-0.32-0.16-0.49-0.23c0.74-1.15,2.02-1.87,3.41-1.87c1.35,0,2.59,0.66,3.34,1.76
				c-0.17,0.12-0.33,0.24-0.49,0.38c-0.22,0.19-0.24,0.53-0.05,0.75s0.53,0.24,0.75,0.05c0.74-0.65,1.68-1,2.66-1
				c2.23,0,4.04,1.81,4.04,4.04c0,0.24-0.02,0.48-0.06,0.72c0,0.01,0,0.03-0.01,0.04c-0.04,0.23-0.11,0.45-0.19,0.68
				c-0.1,0.27,0.03,0.58,0.31,0.69c0.06,0.02,0.13,0.03,0.19,0.03c0.21,0,0.42-0.13,0.5-0.34c0.06-0.17,0.12-0.34,0.16-0.51
				c0.14-0.02,0.27-0.02,0.41-0.02c1.87,0,3.4,1.53,3.4,3.4C30.94,17.76,29.41,19.28,27.54,19.28z"/>
		</g>
	</g>
	<path d="M17.91,23.21L17.7,23l-0.6,0.61h-2.46c-0.04-0.33-0.21-0.62-0.46-0.8l1.22-2.12l0.83-0.22l-0.08-0.28l-0.75,0.2l-0.2-0.74
		l-0.28,0.08l0.22,0.83l-1.22,2.12c-0.14-0.06-0.3-0.09-0.46-0.09s-0.32,0.03-0.46,0.09l-1.22-2.12L12,19.73l-0.28-0.08l-0.2,0.74
		l-0.75-0.2l-0.08,0.28l0.83,0.22l1.22,2.12c-0.25,0.19-0.42,0.48-0.46,0.8H9.81L9.21,23L9,23.21l0.55,0.55L9,24.3l0.21,0.21
		l0.61-0.61h2.45c0.04,0.33,0.21,0.62,0.46,0.8l-1.23,2.13l-0.83,0.22l0.08,0.29l0.75-0.2l0.2,0.74l0.28-0.08l-0.22-0.83l0,0
		l1.23-2.12c0.14,0.06,0.3,0.09,0.46,0.09s0.32-0.03,0.46-0.09l1.23,2.12l0,0l-0.22,0.83l0.28,0.08l0.2-0.74l0.75,0.2l0.08-0.29
		l-0.83-0.22l-1.23-2.13c0.25-0.19,0.42-0.48,0.46-0.8h2.45l0.61,0.61l0.21-0.21l-0.54-0.54L17.91,23.21z M14.34,23.9
		c-0.03,0.22-0.15,0.41-0.31,0.55c-0.08,0.06-0.16,0.11-0.26,0.15c-0.1,0.04-0.2,0.06-0.31,0.06s-0.22-0.02-0.31-0.06
		c-0.09-0.03-0.18-0.08-0.26-0.15c-0.16-0.13-0.28-0.33-0.31-0.55c-0.01-0.05-0.01-0.1-0.01-0.15s0-0.1,0.01-0.15
		c0.03-0.22,0.15-0.41,0.31-0.55c0.08-0.06,0.16-0.11,0.26-0.15c0.1-0.04,0.2-0.06,0.31-0.06s0.22,0.02,0.31,0.06
		c0.09,0.03,0.18,0.08,0.26,0.15c0.16,0.13,0.28,0.33,0.31,0.55c0.01,0.05,0.01,0.1,0.01,0.15C14.36,23.8,14.35,23.85,14.34,23.9z"
		/>
	<path d="M25,20.1l-0.14-0.14l-0.39,0.4h-1.6c-0.03-0.21-0.14-0.4-0.3-0.53l0.8-1.39l0.54-0.15l-0.05-0.19l-0.49,0.13l-0.13-0.49
		l-0.19,0.05l0.14,0.54l-0.8,1.39c-0.09-0.04-0.2-0.06-0.3-0.06s-0.21,0.02-0.3,0.06l-0.8-1.39l0.14-0.54l-0.19-0.05l-0.13,0.49
		l-0.49-0.13l-0.05,0.19l0.54,0.15l0.8,1.39c-0.16,0.12-0.28,0.31-0.3,0.53h-1.6l-0.39-0.4l-0.14,0.14l0.36,0.36l-0.36,0.35
		l0.14,0.14l0.4-0.4h1.6c0.03,0.21,0.14,0.4,0.3,0.53l-0.8,1.39l-0.54,0.14l0.05,0.19l0.49-0.13l0.13,0.49l0.19-0.05l-0.15-0.54l0,0
		l0.8-1.39c0.09,0.04,0.2,0.06,0.3,0.06s0.21-0.02,0.3-0.06l0.8,1.39l0,0l-0.15,0.54l0.19,0.05l0.13-0.49l0.49,0.13l0.05-0.19
		l-0.54-0.14l-0.8-1.39c0.16-0.12,0.28-0.31,0.3-0.53h1.6l0.4,0.4L25,20.81l-0.35-0.35L25,20.1z M22.66,20.55
		c-0.02,0.14-0.1,0.27-0.21,0.36c-0.05,0.04-0.11,0.07-0.17,0.1s-0.13,0.04-0.21,0.04s-0.14-0.01-0.21-0.04
		c-0.06-0.02-0.12-0.05-0.17-0.1c-0.11-0.09-0.18-0.21-0.21-0.36c-0.01-0.03-0.01-0.06-0.01-0.1c0-0.03,0-0.07,0.01-0.1
		c0.02-0.14,0.1-0.27,0.21-0.36c0.05-0.04,0.11-0.07,0.17-0.1s0.13-0.04,0.21-0.04s0.14,0.01,0.21,0.04
		c0.06,0.02,0.12,0.05,0.17,0.1c0.11,0.09,0.18,0.21,0.21,0.36c0.01,0.03,0.01,0.06,0.01,0.1S22.67,20.52,22.66,20.55z"/>
	<path d="M18.57,16.1l-0.09-0.09l-0.26,0.26h-1.05c-0.02-0.14-0.09-0.26-0.2-0.34l0.52-0.91l0.36-0.1l-0.03-0.12l-0.32,0.08
		l-0.09-0.32l-0.12,0.03l0.09,0.36l-0.52,0.91c-0.06-0.03-0.13-0.04-0.2-0.04c-0.07,0-0.14,0.01-0.2,0.04l-0.52-0.91l0.09-0.36
		l-0.12-0.03l-0.09,0.32L15.5,14.8l-0.03,0.12l0.36,0.1l0.52,0.91c-0.11,0.08-0.18,0.2-0.2,0.34H15.1l-0.26-0.26l-0.09,0.09
		l0.23,0.23l-0.23,0.23l0.09,0.09l0.26-0.26h1.05c0.02,0.14,0.09,0.26,0.2,0.34l-0.53,0.91l-0.35,0.09l0.03,0.12l0.32-0.08
		l0.09,0.32l0.12-0.03l-0.1-0.35l0,0l0.53-0.91c0.06,0.03,0.13,0.04,0.2,0.04c0.07,0,0.14-0.01,0.2-0.04l0.53,0.91l0,0l-0.1,0.35
		l0.12,0.03l0.09-0.32l0.32,0.08l0.03-0.12l-0.35-0.09l-0.53-0.91c0.11-0.08,0.18-0.2,0.2-0.34h1.05l0.26,0.26l0.09-0.09l-0.23-0.23
		L18.57,16.1z M17.04,16.39c-0.01,0.09-0.06,0.18-0.13,0.23c-0.03,0.03-0.07,0.05-0.11,0.06c-0.04,0.02-0.09,0.03-0.13,0.03
		c-0.05,0-0.09-0.01-0.13-0.03c-0.04-0.01-0.08-0.04-0.11-0.06c-0.07-0.06-0.12-0.14-0.13-0.23c0-0.02-0.01-0.04-0.01-0.06
		c0-0.02,0-0.04,0.01-0.06c0.01-0.09,0.06-0.18,0.13-0.23c0.03-0.03,0.07-0.05,0.11-0.06c0.04-0.02,0.09-0.03,0.13-0.03
		c0.05,0,0.09,0.01,0.13,0.03c0.04,0.01,0.08,0.04,0.11,0.06c0.07,0.06,0.12,0.14,0.13,0.23c0,0.02,0.01,0.04,0.01,0.06
		C17.04,16.35,17.04,16.37,17.04,16.39z"/>
</g>
</svg>
