<?xml version="1.0" encoding="utf-8"?>
<!-- Generator: Adobe Illustrator 26.0.2, SVG Export Plug-In . SVG Version: 6.00 Build 0)  -->
<svg version="1.1" id="Layer_1" xmlns="http://www.w3.org/2000/svg" xmlns:xlink="http://www.w3.org/1999/xlink" x="0px" y="0px"
	 viewBox="0 0 32 32" style="enable-background:new 0 0 32 32;" xml:space="preserve">
<g id="Sunny">
	<path d="M16,24.22c-4.51,0-8.19-3.67-8.19-8.19c0-4.51,3.67-8.19,8.19-8.19c4.51,0,8.19,3.67,8.19,8.19
		C24.19,20.54,20.52,24.22,16,24.22z M16,8.91c-3.93,0-7.12,3.2-7.12,7.12s3.2,7.12,7.12,7.12s7.12-3.2,7.12-7.12
		S19.93,8.91,16,8.91z"/>
	<path d="M16.53,0.03v5.63C16.36,5.65,16.18,5.65,16,5.65s-0.36,0-0.53,0.01V0.03H16.53z"/>
	<path d="M16,26.42c0.18,0,0.36,0,0.53-0.01v5.62h-1.06v-5.62C15.64,26.42,15.82,26.42,16,26.42z"/>
	<path d="M5.06,4.34l3.98,3.98C8.91,8.43,8.79,8.56,8.66,8.69C8.53,8.81,8.41,8.94,8.29,9.07L4.31,5.09L5.06,4.34z"/>
	<path d="M23.35,23.37c0.13-0.13,0.25-0.25,0.37-0.38l3.97,3.97l-0.75,0.75l-3.97-3.97C23.09,23.63,23.22,23.5,23.35,23.37z"/>
	<path d="M0,15.5h5.63c-0.01,0.17-0.01,0.35-0.01,0.53s0,0.36,0.01,0.53H0V15.5z"/>
	<path d="M26.39,16.03c0-0.18,0-0.36-0.01-0.53H32v1.06h-5.62C26.39,16.39,26.39,16.21,26.39,16.03z"/>
	<path d="M4.31,26.96l3.98-3.98c0.11,0.13,0.24,0.25,0.37,0.38s0.25,0.25,0.38,0.37l-3.98,3.98L4.31,26.96z"/>
	<path d="M23.35,8.68c-0.13-0.13-0.25-0.25-0.38-0.37l3.97-3.97l0.75,0.75l-3.97,3.97C23.6,8.93,23.47,8.81,23.35,8.68z"/>
</g>
</svg>
