<?xml version="1.0" encoding="utf-8"?>
<!-- Generator: Adobe Illustrator 26.0.2, SVG Export Plug-In . SVG Version: 6.00 Build 0)  -->
<svg version="1.1" id="Layer_1" xmlns="http://www.w3.org/2000/svg" xmlns:xlink="http://www.w3.org/1999/xlink" x="0px" y="0px"
	 viewBox="0 0 32 32" style="enable-background:new 0 0 32 32;" xml:space="preserve">
<g id="Thunderstorm">
	<g>
		<g>
			<path fill="#FFEC44" d="M22.68,18.72h-2.22c-0.15,0-0.23-0.17-0.13-0.28l0.52-0.63h-1.38l-1.27,1.54c-0.14,0.17-0.02,0.44,0.21,0.44h2.08
				c0.22,0,0.33,0.26,0.18,0.42l-5.19,5.44c-0.05,0.05-0.12-0.01-0.09-0.07l1.38-2.42c0.13-0.22-0.03-0.5-0.29-0.5h-1.69
				c-0.21,0-0.33-0.23-0.22-0.41l2.93-4.45h-1.27l-3.58,5.44c-0.13,0.2,0.01,0.48,0.26,0.48h2.32l-3.42,5.99
				c-0.27,0.48,0.36,0.95,0.74,0.55l10.41-10.92C23.17,19.11,23,18.72,22.68,18.72z"/>
		</g>
		<g>
			<path fill="#ffffff" d="M27.54,8.88c-0.08,0-0.17,0-0.25,0.01c0-0.07,0-0.14,0-0.22c0-2.81-2.29-5.1-5.1-5.1c-0.67,0-1.33,0.13-1.94,0.38
				c-0.94-1.44-2.53-2.32-4.28-2.32c-1.87,0-3.58,1.02-4.47,2.64c-0.27-0.04-0.55-0.07-0.82-0.07c-1.2,0-2.36,0.43-3.27,1.22
				C6.66,6.07,6.12,6.93,5.86,7.88C5.58,7.83,5.29,7.81,5,7.81c-2.76,0-5,2.24-5,5s2.24,5,5,5h22.54c2.46,0,4.46-2,4.46-4.46
				S30,8.88,27.54,8.88z M27.54,16.75H5c-2.17,0-3.94-1.77-3.94-3.94S2.83,8.87,5,8.87c0.38,0,0.76,0.05,1.12,0.16
				C6.68,9.19,7.2,9.49,7.64,9.89c0.22,0.2,0.55,0.18,0.75-0.04C8.59,9.63,8.58,9.3,8.36,9.1C7.92,8.7,7.42,8.39,6.89,8.17
				c0.2-0.75,0.63-1.43,1.22-1.95c0.71-0.62,1.63-0.96,2.57-0.96c0.65,0,1.29,0.16,1.86,0.47c0.26,0.14,0.58,0.04,0.72-0.21
				c0.14-0.26,0.04-0.58-0.21-0.72c-0.16-0.09-0.32-0.16-0.49-0.23c0.74-1.15,2.02-1.87,3.41-1.87c1.35,0,2.59,0.66,3.34,1.76
				c-0.17,0.12-0.33,0.24-0.49,0.38c-0.22,0.19-0.24,0.53-0.05,0.75c0.19,0.22,0.53,0.24,0.75,0.05c0.74-0.65,1.68-1,2.66-1
				c2.23,0,4.04,1.81,4.04,4.04c0,0.24-0.02,0.48-0.06,0.72c0,0.01,0,0.03-0.01,0.04c-0.04,0.23-0.11,0.45-0.19,0.68
				c-0.1,0.27,0.03,0.58,0.31,0.69c0.06,0.02,0.13,0.03,0.19,0.03c0.21,0,0.42-0.13,0.5-0.34c0.06-0.17,0.12-0.34,0.16-0.51
				c0.14-0.02,0.27-0.02,0.41-0.02c1.87,0,3.4,1.53,3.4,3.4C30.94,15.22,29.41,16.75,27.54,16.75z"/>
		</g>
	</g>
	<path fill="#00B2FF" d="M5.26,26.9c-1.32,0-2.4-1.07-2.4-2.4c0-1.1,1.6-4.3,1.92-4.93l0.47-0.93l0.47,0.93c0.32,0.63,1.92,3.83,1.92,4.93
		C7.66,25.83,6.58,26.9,5.26,26.9z M5.26,21.02C4.6,22.4,3.93,24.01,3.93,24.5c0,0.74,0.6,1.33,1.33,1.33s1.33-0.6,1.33-1.33
		C6.59,24.01,5.92,22.4,5.26,21.02z"/>
	<path fill="#00B2FF" d="M11.64,22.34c-1.02,0-1.85-0.83-1.85-1.85c0-0.8,1.06-2.93,1.38-3.57l0.47-0.93l0.47,0.93c0.32,0.64,1.38,2.77,1.38,3.57
		C13.49,21.5,12.66,22.34,11.64,22.34z M11.64,18.37c-0.43,0.93-0.79,1.83-0.79,2.11c0,0.44,0.35,0.79,0.79,0.79
		s0.79-0.35,0.79-0.79C12.43,20.21,12.07,19.31,11.64,18.37z"/>
	<path fill="#00B2FF" d="M7.12,16.45c-0.87,0-1.58-0.71-1.58-1.58c0-0.64,0.78-2.23,1.11-2.89l0.47-0.93l0.47,0.93c0.33,0.66,1.11,2.25,1.11,2.89
		C8.71,15.74,8,16.45,7.12,16.45z M7.12,13.45C6.83,14.1,6.6,14.68,6.6,14.87c0,0.29,0.23,0.52,0.52,0.52s0.52-0.23,0.52-0.52
		C7.64,14.68,7.42,14.1,7.12,13.45z"/>
</g>
</svg>
