<?xml version="1.0" encoding="utf-8"?>
<!-- Generator: Adobe Illustrator 26.0.2, SVG Export Plug-In . SVG Version: 6.00 Build 0)  -->
<svg version="1.1" id="Layer_1" xmlns="http://www.w3.org/2000/svg" xmlns:xlink="http://www.w3.org/1999/xlink" x="0px" y="0px"
	 viewBox="0 0 32 32" style="enable-background:new 0 0 32 32;" xml:space="preserve">
<g id="Windy_Cloudy">
	<g>
		<g>
			<path d="M28.18,12.88c-0.07,0-0.14,0-0.21,0.01c0-0.06,0-0.12,0-0.18c0-2.41-1.96-4.37-4.37-4.37c-0.57,0-1.14,0.11-1.66,0.33
				c-0.8-1.23-2.17-1.98-3.66-1.98c-1.6,0-3.06,0.87-3.82,2.26c-0.23-0.04-0.47-0.06-0.7-0.06c-1.03,0-2.02,0.37-2.8,1.04
				c-0.64,0.56-1.1,1.29-1.32,2.1c-0.24-0.04-0.49-0.06-0.74-0.06c-2.36,0-4.28,1.92-4.28,4.28s1.92,4.28,4.28,4.28h19.28
				c2.1,0,3.82-1.71,3.82-3.82C32,14.59,30.29,12.88,28.18,12.88z M28.18,19.61H8.9c-1.86,0-3.37-1.51-3.37-3.37
				s1.51-3.37,3.37-3.37c0.33,0,0.65,0.05,0.96,0.14c0.48,0.14,0.93,0.39,1.31,0.73c0.19,0.17,0.47,0.15,0.64-0.03
				c0.17-0.19,0.15-0.47-0.03-0.64c-0.37-0.34-0.8-0.61-1.26-0.79c0.17-0.64,0.53-1.22,1.04-1.67c0.61-0.53,1.39-0.82,2.2-0.82
				c0.56,0,1.11,0.14,1.59,0.4c0.22,0.12,0.5,0.04,0.62-0.18s0.04-0.5-0.18-0.62c-0.14-0.07-0.27-0.14-0.42-0.2
				c0.63-0.99,1.73-1.6,2.92-1.6c1.16,0,2.22,0.57,2.86,1.51C21,9.2,20.86,9.3,20.73,9.42c-0.19,0.17-0.21,0.45-0.04,0.64
				c0.17,0.19,0.45,0.21,0.64,0.04c0.63-0.55,1.44-0.86,2.28-0.86c1.91,0,3.46,1.55,3.46,3.46c0,0.21-0.02,0.41-0.05,0.61
				c0,0.01,0,0.02-0.01,0.04c-0.04,0.2-0.09,0.39-0.16,0.58c-0.09,0.23,0.03,0.5,0.26,0.59c0.05,0.02,0.11,0.03,0.16,0.03
				c0.18,0,0.36-0.11,0.43-0.29c0.05-0.14,0.1-0.29,0.14-0.44c0.12-0.01,0.23-0.02,0.35-0.02c1.6,0,2.91,1.3,2.91,2.91
				C31.09,18.3,29.79,19.61,28.18,19.61z"/>
		</g>
	</g>
	<g>
		<rect y="16.02" width="6.88" height="0.68"/>
		<path d="M20.61,16.26c0,1.64-1.34,2.98-2.98,2.98H2.55v-0.68h15.08c1.27,0,2.3-1.04,2.3-2.3c0-0.25-0.04-0.5-0.12-0.72
			c-0.23-0.71-0.8-1.27-1.51-1.49c-0.21-0.06-0.44-0.1-0.67-0.1c-0.1,0-0.21,0.01-0.3,0.03c-0.29,0.03-0.57,0.13-0.81,0.26
			c-0.01,0-0.01,0-0.01,0c-0.38,0.22-0.69,0.53-0.9,0.91c0,0.01-0.01,0.01-0.01,0.01c-0.03,0.12-0.05,0.24-0.05,0.37
			c0,0.75,0.61,1.35,1.35,1.35c0.75,0,1.35-0.61,1.35-1.35h0.68c0,1.12-0.92,2.04-2.04,2.04c-0.58,0-1.11-0.24-1.48-0.64
			c-0.34-0.36-0.55-0.85-0.55-1.39c0-0.24,0.05-0.47,0.12-0.68c0-0.01,0-0.01,0.01-0.02c0.3-0.54,0.75-0.98,1.3-1.25
			c0.31-0.16,0.66-0.26,1.02-0.3c0.1-0.01,0.2-0.01,0.3-0.01c1.39,0,2.57,0.97,2.89,2.27C20.58,15.77,20.61,16.01,20.61,16.26z"/>
		<rect x="4.26" y="20.77" width="6.16" height="0.68"/>
		<rect x="8.55" y="24.69" width="4.43" height="0.68"/>
		<rect x="12.96" y="20.77" width="2.56" height="0.68"/>
		<path d="M18.94,24.82h-0.68c0-0.75-0.61-1.35-1.35-1.35H0v-0.68h16.91C18.03,22.78,18.94,23.7,18.94,24.82z"/>
	</g>
</g>
</svg>
