<?xml version="1.0" encoding="utf-8"?>
<!-- Generator: Adobe Illustrator 26.0.2, SVG Export Plug-In . SVG Version: 6.00 Build 0)  -->
<svg version="1.1" id="Layer_1" xmlns="http://www.w3.org/2000/svg" xmlns:xlink="http://www.w3.org/1999/xlink" x="0px" y="0px"
	 viewBox="0 0 32 32" style="enable-background:new 0 0 32 32;" xml:space="preserve">
<g id="Windy">
	<rect x="0.01" y="10.9" width="10.67" height="1.06"/>
	<path d="M31.99,11.28c0,2.55-2.08,4.63-4.63,4.63H3.96v-1.06h23.4c1.97,0,3.57-1.61,3.57-3.57c0-0.39-0.06-0.77-0.18-1.12
		c-0.36-1.1-1.24-1.97-2.35-2.31c-0.33-0.1-0.68-0.15-1.04-0.15c-0.16,0-0.32,0.01-0.47,0.04c-0.45,0.05-0.88,0.2-1.26,0.41
		c-0.01,0-0.01,0-0.01,0c-0.59,0.34-1.07,0.82-1.39,1.41c0,0.01-0.01,0.01-0.01,0.02c-0.05,0.19-0.08,0.38-0.08,0.58
		c0,1.16,0.94,2.1,2.1,2.1s2.1-0.94,2.1-2.1h1.06c0,1.74-1.42,3.16-3.16,3.16c-0.9,0-1.72-0.38-2.3-1
		c-0.53-0.56-0.86-1.32-0.86-2.16c0-0.37,0.07-0.73,0.19-1.06c0-0.01,0-0.02,0.01-0.03c0.46-0.84,1.16-1.52,2.02-1.94
		c0.48-0.25,1.02-0.41,1.59-0.47c0.15-0.01,0.31-0.02,0.47-0.02c2.16,0,3.99,1.5,4.49,3.52C31.94,10.52,31.99,10.89,31.99,11.28z"/>
	<rect x="6.62" y="18.27" width="9.56" height="1.06"/>
	<rect x="13.27" y="24.35" width="6.88" height="1.06"/>
	<rect x="20.11" y="18.27" width="3.97" height="1.06"/>
	<path d="M29.4,24.56h-1.06c0-1.16-0.94-2.1-2.1-2.1H0.01V21.4h26.23C27.98,21.4,29.4,22.82,29.4,24.56z"/>
</g>
</svg>
