<?xml version="1.0" encoding="utf-8"?>
<!-- Generator: Adobe Illustrator 26.0.2, SVG Export Plug-In . SVG Version: 6.00 Build 0)  -->
<svg version="1.1" id="Layer_1" xmlns="http://www.w3.org/2000/svg" xmlns:xlink="http://www.w3.org/1999/xlink" x="0px" y="0px"
	 viewBox="0 0 1000 256" style="enable-background:new 0 0 1000 256;" xml:space="preserve">
<g>
	<g>
		<path d="M340.44,119.06h-24.09L286.9,31.87h22.52l18.98,66.37l18.98-66.37h22.52L340.44,119.06z"/>
		<path d="M378.4,31.87h54.33v17.02h-32.86v17.54h31.29v17.02h-31.29v18.59h33.25v17.02H378.4V31.87z"/>
		<path d="M513.63,59.49c0,5.85-1.64,10.95-4.91,15.32c-3.27,4.37-7.83,7.68-13.68,9.95l28.67,34.3h-26.44l-23.96-30.24h-3.93v30.24
			h-21.47V31.87h27.75c5.41,0,10.43,0.57,15.05,1.7c4.62,1.14,8.64,2.84,12.04,5.11c3.4,2.27,6.06,5.13,7.99,8.57
			C512.67,50.7,513.63,54.78,513.63,59.49z M492.95,59.89c0-3.93-1.53-6.83-4.58-8.71c-3.06-1.88-7.33-2.81-12.83-2.81h-6.15v24.48
			h5.24c5.76,0,10.25-1.13,13.48-3.4C491.33,67.17,492.95,63.99,492.95,59.89z"/>
		<path d="M568.87,87.38v31.68h-21.47V87.38l-28.67-55.51h22.91l16.49,36.65l16.49-36.65h22.91L568.87,87.38z"/>
		<path d="M677.4,30.3c11.34,0,20.86,1.78,28.54,5.33l-2.88,16.14c-7.51-2.97-15.36-4.45-23.56-4.45c-4.37,0-8.29,0.57-11.78,1.7
			c-3.49,1.13-6.48,2.9-8.97,5.3c-2.49,2.4-4.41,5.46-5.76,9.16c-1.35,3.71-2.03,8.14-2.03,13.29c0,9.08,2.38,15.93,7.13,20.55
			c4.76,4.63,11.76,6.94,21.01,6.94c2.01,0,3.93-0.15,5.76-0.46c1.83-0.3,3.36-0.68,4.58-1.11V78.34h19.24v35.95
			c-3.75,1.85-8.53,3.37-14.34,4.55c-5.8,1.19-11.85,1.78-18.13,1.78c-7.33,0-13.88-1.07-19.64-3.21
			c-5.76-2.14-10.65-5.13-14.66-8.97c-4.02-3.84-7.09-8.44-9.23-13.81c-2.14-5.37-3.21-11.32-3.21-17.87
			c0-6.98,1.07-13.33,3.21-19.05c2.14-5.72,5.26-10.6,9.36-14.66c4.1-4.06,9.12-7.2,15.05-9.43C663.04,31.41,669.81,30.3,677.4,30.3
			z"/>
		<path d="M809.35,75.46c0,6.2-1,12.02-3.01,17.48c-2.01,5.46-4.91,10.23-8.71,14.33c-3.8,4.1-8.44,7.35-13.94,9.75
			c-5.5,2.4-11.78,3.6-18.85,3.6c-7.07,0-13.37-1.2-18.92-3.6c-5.54-2.4-10.21-5.65-14.01-9.75c-3.8-4.1-6.68-8.88-8.64-14.33
			c-1.96-5.45-2.95-11.28-2.95-17.48c0-6.2,0.98-12.02,2.95-17.48c1.96-5.45,4.84-10.23,8.64-14.33c3.8-4.1,8.46-7.35,14.01-9.75
			c5.54-2.4,11.85-3.6,18.92-3.6c7.07,0,13.35,1.2,18.85,3.6c5.5,2.4,10.15,5.65,13.94,9.75c3.8,4.1,6.7,8.88,8.71,14.33
			C808.35,63.44,809.35,69.27,809.35,75.46z M764.84,103.61c3.75,0,7.07-0.7,9.95-2.09c2.88-1.39,5.3-3.34,7.27-5.83
			c1.96-2.49,3.42-5.45,4.39-8.9c0.96-3.45,1.44-7.22,1.44-11.32c0-4.1-0.48-7.88-1.44-11.32c-0.96-3.45-2.42-6.41-4.39-8.9
			c-1.96-2.49-4.39-4.43-7.27-5.83c-2.88-1.4-6.2-2.09-9.95-2.09c-3.84,0-7.18,0.7-10.01,2.09c-2.84,1.4-5.24,3.34-7.2,5.83
			c-1.96,2.49-3.43,5.46-4.39,8.9c-0.96,3.45-1.44,7.22-1.44,11.32c0,4.1,0.48,7.88,1.44,11.32c0.96,3.45,2.42,6.41,4.39,8.9
			c1.96,2.49,4.36,4.43,7.2,5.83C757.66,102.91,761,103.61,764.84,103.61z"/>
		<path d="M907.66,75.46c0,6.2-1,12.02-3.01,17.48c-2.01,5.46-4.91,10.23-8.71,14.33c-3.8,4.1-8.44,7.35-13.94,9.75
			c-5.5,2.4-11.78,3.6-18.85,3.6c-7.07,0-13.37-1.2-18.92-3.6c-5.54-2.4-10.21-5.65-14.01-9.75c-3.8-4.1-6.68-8.88-8.64-14.33
			c-1.96-5.45-2.95-11.28-2.95-17.48c0-6.2,0.98-12.02,2.95-17.48c1.96-5.45,4.84-10.23,8.64-14.33c3.8-4.1,8.46-7.35,14.01-9.75
			c5.54-2.4,11.85-3.6,18.92-3.6c7.07,0,13.35,1.2,18.85,3.6c5.5,2.4,10.15,5.65,13.94,9.75c3.8,4.1,6.7,8.88,8.71,14.33
			C906.66,63.44,907.66,69.27,907.66,75.46z M863.15,103.61c3.75,0,7.07-0.7,9.95-2.09c2.88-1.39,5.3-3.34,7.27-5.83
			c1.96-2.49,3.42-5.45,4.39-8.9c0.96-3.45,1.44-7.22,1.44-11.32c0-4.1-0.48-7.88-1.44-11.32c-0.96-3.45-2.42-6.41-4.39-8.9
			c-1.96-2.49-4.39-4.43-7.27-5.83c-2.88-1.4-6.2-2.09-9.95-2.09c-3.84,0-7.18,0.7-10.01,2.09c-2.84,1.4-5.24,3.34-7.2,5.83
			c-1.96,2.49-3.43,5.46-4.39,8.9c-0.96,3.45-1.44,7.22-1.44,11.32c0,4.1,0.48,7.88,1.44,11.32c0.96,3.45,2.42,6.41,4.39,8.9
			c1.96,2.49,4.36,4.43,7.2,5.83C855.97,102.91,859.31,103.61,863.15,103.61z"/>
		<path d="M920.62,31.87h26.57c7.68,0,14.73,1.09,21.14,3.27c6.41,2.18,11.89,5.19,16.43,9.03c4.54,3.84,8.07,8.44,10.6,13.81
			c2.53,5.37,3.8,11.19,3.8,17.48c0,6.28-1.27,12.11-3.8,17.48c-2.53,5.37-6.07,9.97-10.6,13.81c-4.54,3.84-10.01,6.85-16.43,9.03
			c-6.41,2.18-13.46,3.27-21.14,3.27h-26.57V31.87z M948.5,102.04c4.36,0,8.33-0.61,11.91-1.83c3.58-1.22,6.65-2.97,9.23-5.24
			c2.57-2.27,4.56-5.04,5.96-8.31c1.4-3.27,2.09-7,2.09-11.19c0-4.19-0.7-7.92-2.09-11.19c-1.4-3.27-3.38-6.04-5.96-8.31
			c-2.58-2.27-5.65-4.01-9.23-5.24c-3.58-1.22-7.55-1.83-11.91-1.83h-6.41v53.15H948.5z"/>
	</g>
	<g>
		<g>
			<path d="M380.37,204.54l13.48-60.48h21.99l-24.09,87.19H369.9l-17.67-65.45l-17.67,65.45h-21.86l-24.09-87.19h21.99l13.48,60.48
				l16.23-60.48h23.83L380.37,204.54z"/>
			<path d="M426.05,144.06h54.33v17.02h-32.86v17.54h31.29v17.02h-31.29v18.59h33.25v17.02h-54.72V144.06z"/>
			<path d="M549.5,214.36h-33.38l-5.37,16.89h-22.12l32.47-87.19h23.56l32.47,87.19H555L549.5,214.36z M521.62,197.34H544
				l-11.13-36.79L521.62,197.34z"/>
			<path d="M642.97,144.06v17.02h-23.43v70.17h-21.47v-70.17h-23.43v-17.02H642.97z"/>
			<path d="M706.72,231.25v-35.48h-31.94v35.48h-21.47v-87.19h21.47v34.17h31.94v-34.17h21.47v87.19H706.72z"/>
			<path d="M745.21,144.06h54.33v17.02h-32.86v17.54h31.29v17.02h-31.29v18.59h33.25v17.02h-54.72V144.06z"/>
			<path d="M880.44,171.69c0,5.85-1.64,10.95-4.91,15.32c-3.27,4.36-7.83,7.68-13.68,9.95l28.67,34.3h-26.44l-23.96-30.24h-3.93
				v30.24h-21.47v-87.19h27.75c5.41,0,10.43,0.57,15.05,1.7c4.62,1.14,8.64,2.84,12.04,5.11c3.4,2.27,6.06,5.13,7.98,8.57
				C879.48,162.9,880.44,166.97,880.44,171.69z M859.75,172.08c0-3.93-1.53-6.83-4.58-8.71c-3.06-1.88-7.33-2.81-12.83-2.81h-6.15
				v24.48h5.24c5.76,0,10.25-1.13,13.48-3.4C858.14,179.37,859.75,176.18,859.75,172.08z"/>
		</g>
	</g>
	<g>
		<path d="M148.36,0.16c-40.92,0-77.05,20.51-98.67,51.81c0.42-0.39,0.85-0.78,1.28-1.15c5.84-5.07,12.7-8.71,20.04-10.74
			C91.03,20.7,118.3,8.78,148.36,8.78c53.93,0,98.89,38.37,109.07,89.3c1.42,7.09,2.16,14.42,2.16,21.92c0,10.03-1.33,19.76-3.82,29
			c-12.76,47.37-56.01,82.23-107.41,82.23c-3.09,0-6.15-0.13-9.17-0.37l-7.48,7.85c5.44,0.76,11,1.15,16.65,1.15
			c66.19,0,119.85-53.66,119.85-119.85S214.55,0.16,148.36,0.16z M48.79,169.64h-8.48c-0.36,0-0.72,0-1.07-0.01
			c11.07,24.32,30.04,44.29,53.63,56.63l4.28-7.49C76.29,207.93,59.3,190.68,48.79,169.64z"/>
		<g>
			<path d="M178.63,164.32h-17.37c-1.15,0-1.77-1.33-1.05-2.22l4.06-4.94H153.5l-9.91,12.05c-1.12,1.36-0.15,3.42,1.62,3.42h16.26
				c1.69,0,2.56,2.03,1.39,3.26l-40.62,42.6c-0.36,0.38-0.97-0.07-0.71-0.52l10.82-18.95c0.98-1.72-0.26-3.87-2.25-3.87h-13.25
				c-1.63,0-2.61-1.81-1.71-3.17l22.92-34.81h-9.95l-28.04,42.57c-1.05,1.6,0.1,3.73,2.01,3.73h18.17l-26.79,46.91
				c-2.13,3.72,2.82,7.41,5.78,4.31l81.49-85.47C182.48,167.37,181.17,164.32,178.63,164.32z"/>
		</g>
		<g>
			<path d="M216.67,87.33c-0.65,0-1.31,0.02-1.96,0.05c0.02-0.56,0.04-1.12,0.04-1.69c0-22.02-17.92-39.94-39.94-39.94
				c-5.25,0-10.39,1.03-15.17,2.99c-7.33-11.29-19.83-18.16-33.48-18.16c-14.61,0-27.99,8-34.98,20.63
				c-2.13-0.35-4.29-0.53-6.45-0.53c-9.4,0-18.48,3.39-25.57,9.54c-5.88,5.1-10.08,11.81-12.1,19.23c-2.21-0.38-4.46-0.58-6.74-0.58
				c-21.58,0-39.14,17.56-39.14,39.14c0,21.59,17.56,39.14,39.14,39.14h176.36c19.25,0,34.92-15.66,34.92-34.92
				C251.59,103,235.92,87.33,216.67,87.33z M216.67,148.85H40.31c-17,0-30.83-13.83-30.83-30.83c0-17,13.83-30.82,30.83-30.82
				c2.99,0,5.93,0.43,8.74,1.26c4.4,1.3,8.48,3.57,11.94,6.71c1.71,1.54,4.33,1.41,5.88-0.29c1.54-1.71,1.41-4.33-0.29-5.87
				c-3.43-3.1-7.33-5.55-11.53-7.25c1.57-5.88,4.89-11.2,9.55-15.24c5.57-4.84,12.72-7.51,20.12-7.51c5.09,0,10.13,1.27,14.58,3.67
				c2.02,1.09,4.55,0.34,5.63-1.68c1.09-2.02,0.34-4.55-1.68-5.63c-1.24-0.67-2.51-1.27-3.82-1.8c5.75-9.03,15.8-14.66,26.7-14.66
				c10.58,0,20.28,5.2,26.13,13.8c-1.33,0.9-2.59,1.89-3.81,2.95c-1.72,1.52-1.9,4.14-0.38,5.87c1.52,1.72,4.14,1.9,5.87,0.38
				c5.76-5.06,13.16-7.85,20.84-7.85c17.44,0,31.63,14.19,31.63,31.62c0,1.9-0.17,3.77-0.5,5.6c-0.02,0.11-0.04,0.23-0.06,0.33
				c-0.34,1.79-0.84,3.56-1.49,5.28c-0.81,2.15,0.27,4.55,2.41,5.36c0.49,0.18,0.99,0.27,1.47,0.27c1.68,0,3.26-1.02,3.89-2.69
				c0.5-1.32,0.93-2.66,1.28-4.02c1.07-0.12,2.15-0.19,3.23-0.19c14.67,0,26.6,11.93,26.6,26.6
				C243.27,136.91,231.34,148.85,216.67,148.85z"/>
		</g>
	</g>
</g>
</svg>
