<?xml version="1.0" encoding="utf-8"?>
<!-- Generator: Adobe Illustrator 26.0.2, SVG Export Plug-In . SVG Version: 6.00 Build 0)  -->
<svg version="1.1" id="Layer_1" xmlns="http://www.w3.org/2000/svg" xmlns:xlink="http://www.w3.org/1999/xlink" x="0px" y="0px"
	 viewBox="0 0 500 533" style="enable-background:new 0 0 500 533;" xml:space="preserve">
<g>
	<path fill="#FFFFFF" d="M248.66,65.11c-68.85,0-129.64,34.51-166.02,87.17c0.71-0.66,1.43-1.3,2.16-1.94c9.82-8.52,21.37-14.66,33.72-18.07
		c33.68-32.6,79.57-52.66,130.14-52.66c90.73,0,166.39,64.57,183.52,150.26c2.39,11.93,3.63,24.26,3.63,36.89
		c0,16.88-2.24,33.24-6.43,48.8c-21.47,79.7-94.24,138.35-180.72,138.35c-5.2,0-10.34-0.21-15.43-0.63l-12.59,13.2
		c9.16,1.27,18.51,1.93,28.02,1.93c111.37,0,201.66-90.28,201.66-201.66S360.03,65.11,248.66,65.11z M81.13,350.29H66.86
		c-0.6,0-1.2-0.01-1.81-0.02c18.63,40.92,50.55,74.52,90.23,95.28l7.2-12.61C127.4,414.71,98.82,385.69,81.13,350.29z"/>
	<g>
		<path fill="#FFFFFF" d="M97.04,102.56c-3.35,3.16-6.63,6.45-9.83,9.87c-14.1-5.4-28.81-9.81-44.07-13.13c3.32-4.14,6.73-8.15,10.23-12.03
			c10.84,3.87,21.39,8.23,31.61,13.05c-4.82-10.24-9.22-20.77-13.18-31.56c3.78-3.44,7.64-6.75,11.57-9.92
			C87,73.89,91.57,88.5,97.04,102.56z"/>
		<path fill="#FFFFFF" d="M87.87,55.29c9.62-7.43,19.64-14.09,29.99-19.99c1.35,2.37,2.7,4.74,4.06,7.12c-6.06,3.46-12.01,7.19-17.83,11.18
			c1.59,2.32,3.18,4.64,4.77,6.96c5.35-3.68,10.83-7.12,16.4-10.33c1.36,2.37,2.72,4.73,4.08,7.1c-5.39,3.1-10.68,6.43-15.85,9.99
			c1.69,2.46,3.37,4.92,5.06,7.38c5.29-3.64,10.71-7.03,16.23-10.17c1.35,2.37,2.7,4.75,4.05,7.12
			c-8.76,4.98-17.25,10.62-25.39,16.9C104.92,77.46,96.4,66.37,87.87,55.29z"/>
		<path fill="#FFFFFF" d="M170.13,26.63c0.88,2.68,0.69,5.31-0.48,7.93s-3.17,5-5.98,7.23c7.19,3.16,14.07,6.66,20.62,10.44
			c-4.58,1.37-9.12,2.89-13.62,4.56c-5.77-3.03-11.78-5.83-18-8.39c-0.7,0.31-1.4,0.62-2.09,0.94c2.01,4.42,4.01,8.83,6.02,13.25
			c-3.57,1.62-7.1,3.34-10.6,5.15c-6.46-12.41-12.92-24.81-19.38-37.22c5.38-2.8,10.83-5.4,16.35-7.79c3.23-1.4,6.36-2.39,9.34-2.97
			c2.99-0.58,5.7-0.71,8.12-0.41s4.47,1.06,6.14,2.25C168.25,22.8,169.42,24.48,170.13,26.63z M158.22,31.06
			c-0.68-1.76-2.07-2.73-4.18-2.87c-2.11-0.13-4.78,0.46-7.97,1.85c-1.19,0.52-2.37,1.04-3.55,1.58c1.62,3.58,3.25,7.15,4.88,10.73
			c0.96-0.43,1.92-0.86,2.88-1.28c3.18-1.39,5.46-2.91,6.87-4.65C158.55,34.69,158.93,32.91,158.22,31.06z"/>
		<path fill="#FFFFFF" d="M205.29,31.56c0.92,5,1.83,9.99,2.75,14.99c-3.8,0.69-7.59,1.48-11.35,2.37c-1.18-4.94-2.36-9.89-3.54-14.83
			c-7.44-7.39-15.46-14.44-24.02-21.09c4.71-1.47,9.45-2.81,14.22-4.01c4.88,4.84,9.54,9.8,13.98,14.88
			c2.02-6.43,4.28-12.84,6.78-19.22c4.84-0.81,9.69-1.48,14.56-2.02C213.57,12.15,209.11,21.82,205.29,31.56z"/>
		<path fill="#FFFFFF" d="M269.84,1.19c7.27,0.61,13.26,2.26,17.84,4.69c-1,2.47-1.99,4.94-2.95,7.41c-4.39-2.08-9.18-3.38-14.27-3.83
			c-2.71-0.24-5.17-0.14-7.37,0.28c-2.2,0.42-4.09,1.18-5.66,2.28s-2.79,2.53-3.65,4.3s-1.3,3.89-1.35,6.36
			c-0.08,4.37,1.24,7.68,3.83,10c2.6,2.32,6.41,3.61,11.53,4.06c1.11,0.1,2.18,0.13,3.21,0.08c1.03-0.04,1.89-0.13,2.6-0.26
			c0.44-3.88,0.88-7.76,1.33-11.64c3.74,0.42,7.47,0.93,11.19,1.53c-0.92,5.69-1.84,11.38-2.77,17.07
			c-2.16,0.55-4.83,0.89-8.01,1.07c-3.18,0.18-6.43,0.13-9.79-0.14c-3.92-0.32-7.39-1.01-10.47-2.14c-3.08-1.13-5.72-2.59-7.93-4.43
			c-2.22-1.84-3.97-4.02-5.25-6.57s-2-5.39-2.1-8.54c-0.11-3.36,0.42-6.43,1.65-9.21s3.12-5.17,5.7-7.13
			c2.57-1.96,5.78-3.44,9.6-4.38C260.59,1.09,264.98,0.79,269.84,1.19z"/>
		<path fill="#FFFFFF" d="M343.63,41.72c-1.19,2.74-2.85,5.07-4.94,7.04s-4.5,3.46-7.2,4.5c-2.71,1.05-5.66,1.59-8.88,1.67
			c-3.22,0.08-6.62-0.46-10.27-1.58c-3.65-1.12-6.77-2.57-9.4-4.43s-4.76-3.96-6.39-6.34s-2.75-4.95-3.34-7.74s-0.63-5.65-0.07-8.58
			s1.66-5.57,3.35-7.92c1.69-2.34,3.91-4.24,6.67-5.66c2.76-1.41,6.02-2.27,9.75-2.51s7.83,0.29,12.21,1.63s8.07,3.19,11.02,5.48
			c2.95,2.28,5.18,4.82,6.69,7.54s2.31,5.55,2.43,8.45C345.38,36.17,344.82,38.98,343.63,41.72z M314.75,45.52
			c2.01,0.61,3.88,0.87,5.64,0.74c1.75-0.12,3.36-0.56,4.82-1.31c1.46-0.75,2.74-1.81,3.84-3.17c1.1-1.37,2-2.97,2.68-4.82
			c0.69-1.85,1.05-3.65,1.07-5.41c0.02-1.76-0.34-3.41-1.08-4.94c-0.75-1.53-1.87-2.91-3.37-4.12c-1.5-1.21-3.38-2.17-5.63-2.86
			c-2.31-0.7-4.41-0.96-6.3-0.79c-1.89,0.17-3.57,0.69-5.05,1.54c-1.48,0.85-2.69,2.02-3.66,3.49s-1.68,3.17-2.15,5.08
			c-0.47,1.92-0.63,3.75-0.49,5.49c0.14,1.74,0.6,3.33,1.38,4.77s1.84,2.69,3.2,3.76C310.99,44.05,312.69,44.89,314.75,45.52z"/>
		<path fill="#FFFFFF" d="M394.9,71.92c-1.82,2.36-4.02,4.21-6.55,5.58c-2.54,1.37-5.27,2.19-8.19,2.51c-2.93,0.32-5.97,0.08-9.17-0.68
			s-6.43-2.16-9.77-4.17c-3.34-2.02-6.07-4.22-8.22-6.69s-3.75-5.04-4.79-7.76s-1.53-5.5-1.45-8.36s0.72-5.65,1.97-8.36
			s2.96-5.01,5.18-6.87c2.22-1.86,4.85-3.16,7.91-3.85c3.05-0.69,6.46-0.71,10.2-0.01c3.74,0.7,7.66,2.25,11.66,4.67
			c4.01,2.42,7.21,5.18,9.59,8.16c2.38,2.99,3.98,6.04,4.84,9.1c0.85,3.06,0.98,6.03,0.41,8.9
			C397.94,66.95,396.72,69.56,394.9,71.92z M365.44,68.14c1.84,1.11,3.63,1.83,5.39,2.16s3.45,0.32,5.07-0.04s3.13-1.06,4.54-2.11
			s2.68-2.38,3.79-4.01c1.12-1.63,1.9-3.29,2.34-5s0.47-3.41,0.1-5.1c-0.38-1.69-1.16-3.32-2.35-4.88s-2.83-2.98-4.89-4.22
			c-2.11-1.27-4.13-2.06-6.03-2.37c-1.9-0.31-3.69-0.23-5.34,0.23c-1.66,0.46-3.14,1.29-4.44,2.48s-2.41,2.66-3.33,4.41
			c-0.92,1.75-1.51,3.49-1.79,5.22s-0.2,3.39,0.23,4.99c0.43,1.6,1.18,3.08,2.26,4.47C362.08,65.75,363.56,67,365.44,68.14z"/>
		<path fill="#FFFFFF" d="M414.5,60.73c4.61,3.81,9.11,7.8,13.5,11.98c3.81,3.62,6.86,7.46,9.12,11.39c2.27,3.94,3.7,7.73,4.34,11.29
			c0.63,3.56,0.47,6.83-0.46,9.78c-0.92,2.95-2.6,5.35-4.96,7.24s-5.06,3-8.06,3.41s-6.09,0.15-9.28-0.71s-6.43-2.32-9.77-4.34
			c-3.34-2.01-6.57-4.54-9.77-7.58c-3.69-3.51-7.47-6.86-11.34-10.06C396.72,82.33,405.61,71.53,414.5,60.73z M405.37,97.77
			c1.88,1.8,3.77,3.26,5.7,4.39c1.93,1.13,3.82,1.9,5.7,2.3c1.87,0.4,3.68,0.41,5.44,0c1.75-0.41,3.38-1.28,4.88-2.63
			s2.53-2.88,3.08-4.62c0.55-1.74,0.65-3.61,0.28-5.6s-1.18-4.06-2.43-6.17s-2.92-4.19-5.01-6.19c-1.02-0.98-2.06-1.95-3.09-2.91
			c-5.78,6.27-11.55,12.54-17.33,18.81C403.52,96.02,404.45,96.89,405.37,97.77z"/>
	</g>
	<g>
		<path fill="#FFFFFF" d="M258.77,518.98c2.32-9.79,4.32-19.61,6-29.45c3.84-0.27,7.67-0.63,11.48-1.09c-2.48,14.39-5.77,28.75-9.88,43.03
			c-4.54,0.29-9.11,0.47-13.69,0.52c-3.84-10.45-7.24-20.99-10.21-31.58c-3.59,10.39-7.63,20.7-12.12,30.9
			c-4.63-0.34-9.26-0.79-13.9-1.38c-3.38-14.52-5.96-29.08-7.72-43.63c3.94,0.73,7.88,1.35,11.81,1.87
			c1.16,9.93,2.63,19.87,4.41,29.78c4.21-9.33,8.05-18.77,11.49-28.28c4.24,0.25,8.46,0.38,12.67,0.38
			C251.95,499.76,255.18,509.41,258.77,518.98z"/>
		<path fill="#FFFFFF" d="M281.53,487.73c9.35-1.37,18.56-3.32,27.58-5.84c0.73,2.63,1.46,5.26,2.2,7.89c-5.66,1.58-11.38,2.94-17.17,4.09
			c0.55,2.76,1.09,5.52,1.64,8.28c5.71-1.13,11.37-2.47,16.96-4c0.72,2.63,1.44,5.26,2.17,7.9c-5.78,1.59-11.63,2.97-17.54,4.14
			c0.58,2.92,1.16,5.85,1.73,8.77c6.51-1.29,12.94-2.82,19.3-4.6c0.73,2.63,1.47,5.26,2.2,7.89c-10.79,3.02-21.81,5.37-33,7
			C285.57,515.4,283.55,501.56,281.53,487.73z"/>
		<path fill="#FFFFFF" d="M356.65,500.35c-5.99,2.76-12.08,5.29-18.27,7.58c-0.06,2.91-0.15,5.82-0.27,8.74c-4.25,1.52-8.55,2.93-12.89,4.22
			c2.36-15.3,3.62-30.54,3.83-45.59c3.78-1.45,7.51-3,11.2-4.65c10.78,10.49,22.43,20.37,34.89,29.53
			c-3.96,2.14-7.98,4.18-12.05,6.11C360.92,504.34,358.77,502.35,356.65,500.35z M338.49,499.13c4-1.54,7.96-3.18,11.86-4.92
			c-4.34-4.52-8.55-9.13-12.64-13.83C338.13,486.6,338.39,492.85,338.49,499.13z"/>
		<path fill="#FFFFFF" d="M383.67,445.02c1.64,2.18,3.29,4.36,4.93,6.53c-3.33,2.51-6.72,4.93-10.17,7.25c6.29,9.33,12.57,18.66,18.86,28
			c-3.63,2.44-7.31,4.79-11.05,7.05c-5.82-9.63-11.63-19.26-17.45-28.9c-3.56,2.15-7.18,4.2-10.85,6.16
			c-1.28-2.41-2.56-4.82-3.85-7.23C364.42,458.39,374.31,452.08,383.67,445.02z"/>
		<path fill="#FFFFFF" d="M438.29,452.74c-4.06-3.99-8.12-7.97-12.18-11.96c-4.3,4.37-8.74,8.57-13.34,12.59c3.75,4.28,7.5,8.55,11.26,12.83
			c-3.3,2.89-6.66,5.7-10.1,8.42c-8.69-10.95-17.38-21.91-26.07-32.86c2.89-2.29,5.72-4.65,8.5-7.08
			c3.61,4.12,7.23,8.24,10.84,12.35c4.43-3.89,8.73-7.94,12.88-12.16c-3.91-3.84-7.82-7.68-11.73-11.52c2.6-2.64,5.13-5.35,7.6-8.13
			c10.45,9.29,20.9,18.58,31.35,27.87C444.39,446.39,441.38,449.61,438.29,452.74z"/>
		<path fill="#FFFFFF" d="M421.72,408.49c5.98-7.29,11.53-15.01,16.6-23.11c2.31,1.45,4.63,2.9,6.94,4.34c-3.18,5.08-6.54,10.01-10.07,14.79
			c2.26,1.67,4.52,3.34,6.79,5.02c3.49-4.72,6.81-9.58,9.96-14.58c2.31,1.46,4.62,2.91,6.92,4.37c-3.26,5.17-6.7,10.2-10.3,15.08
			c2.4,1.77,4.79,3.54,7.19,5.32c3.97-5.37,7.74-10.92,11.31-16.63c2.31,1.45,4.63,2.89,6.94,4.34
			c-6.05,9.7-12.69,18.94-19.85,27.67C443.35,426.22,432.54,417.36,421.72,408.49z"/>
		<path fill="#FFFFFF" d="M469.98,351.43c2.63,1,4.59,2.77,5.83,5.35c1.24,2.58,1.69,5.72,1.29,9.38c7.33-3.08,14.64-6.61,21.9-10.62
			c-1.91,5.4-3.98,10.69-6.2,15.89c-6.47,2.8-12.96,5.26-19.43,7.39c-0.35,0.7-0.7,1.41-1.06,2.1c4.32,2.2,8.64,4.41,12.96,6.61
			c-2.06,4.05-4.22,8.02-6.47,11.93c-12.11-6.99-24.22-13.97-36.33-20.96c2.45-4.25,4.77-8.6,6.95-13.04
			c1.28-2.6,2.66-4.92,4.17-6.98c1.52-2.06,3.12-3.75,4.84-5.06s3.54-2.18,5.48-2.58C465.83,350.43,467.86,350.62,469.98,351.43z
			 M465.65,362.48c-1.73-0.76-3.35-0.53-4.88,0.66s-2.93,3.15-4.28,5.89c-0.5,1.02-1.01,2.04-1.52,3.05
			c3.5,1.78,6.99,3.57,10.49,5.35c0.46-0.9,0.92-1.81,1.37-2.72c1.49-3.01,2.1-5.63,1.88-7.79
			C468.49,364.74,467.45,363.27,465.65,362.48z"/>
	</g>
	<g>
		<path fill="#FFFFFF" d="M363.6,211.79c-1.1,0-2.2,0.03-3.3,0.09c0.04-0.94,0.06-1.89,0.06-2.84c0-37.05-30.15-67.2-67.21-67.2
			c-8.83,0-17.49,1.73-25.53,5.03c-12.34-19-33.37-30.55-56.34-30.55c-24.58,0-47.1,13.46-58.85,34.72
			c-3.58-0.59-7.21-0.9-10.85-0.9c-15.82,0-31.09,5.7-43.02,16.06c-9.89,8.58-16.96,19.87-20.36,32.35
			c-3.72-0.64-7.51-0.97-11.34-0.97C30.55,197.58,1,227.12,1,263.43c0,36.32,29.55,65.86,65.86,65.86H363.6
			c32.39,0,58.75-26.35,58.75-58.75C422.35,238.15,395.99,211.79,363.6,211.79z M363.6,315.3H66.86c-28.6,0-51.87-23.27-51.87-51.87
			s23.27-51.86,51.87-51.86c5.03,0,9.98,0.72,14.71,2.12c7.4,2.19,14.27,6.01,20.09,11.29c2.87,2.59,7.29,2.37,9.89-0.49
			c2.59-2.87,2.37-7.29-0.49-9.88c-5.77-5.22-12.34-9.33-19.4-12.2c2.65-9.89,8.23-18.85,16.07-25.64
			c9.38-8.15,21.4-12.63,33.85-12.63c8.57,0,17.05,2.13,24.53,6.18c3.4,1.83,7.65,0.57,9.48-2.83c1.84-3.4,0.58-7.65-2.82-9.48
			c-2.08-1.13-4.23-2.14-6.42-3.03c9.68-15.19,26.58-24.66,44.93-24.66c17.8,0,34.12,8.75,43.97,23.22
			c-2.23,1.52-4.36,3.18-6.41,4.97c-2.9,2.55-3.19,6.97-0.64,9.88c2.55,2.9,6.97,3.19,9.88,0.64c9.69-8.51,22.15-13.2,35.07-13.2
			c29.35,0,53.22,23.87,53.22,53.21c0,3.19-0.28,6.34-0.84,9.43c-0.03,0.19-0.06,0.38-0.1,0.56c-0.57,3.02-1.41,5.99-2.51,8.89
			c-1.37,3.61,0.45,7.65,4.06,9.02c0.82,0.31,1.66,0.46,2.48,0.46c2.83,0,5.49-1.72,6.55-4.52c0.84-2.22,1.56-4.48,2.16-6.77
			c1.8-0.21,3.61-0.32,5.43-0.32c24.68,0,44.76,20.08,44.76,44.75C408.36,295.22,388.28,315.3,363.6,315.3z"/>
	</g>
	<g>
		<path fill="#FFEC44" d="M299.59,341.33h-29.22c-1.93,0-2.98-2.24-1.76-3.73l6.83-8.31h-18.12l-16.67,20.28c-1.89,2.29-0.25,5.75,2.72,5.75h27.36
			c2.85,0,4.31,3.41,2.34,5.48l-68.34,71.68c-0.61,0.64-1.63-0.12-1.19-0.88l18.2-31.88c1.65-2.9-0.44-6.52-3.79-6.52h-22.3
			c-2.75,0-4.39-3.05-2.88-5.34l38.57-58.57h-16.75l-47.18,71.63c-1.77,2.69,0.16,6.28,3.38,6.28h30.57l-45.07,78.93
			c-3.58,6.26,4.75,12.46,9.72,7.25l137.11-143.81C306.07,346.46,303.87,341.33,299.59,341.33z"/>
	</g>
</g>
</svg>
